<?xml version="1.0" encoding="UTF-8" standalone="no"?>
<svg viewBox="0 0 659.71783 641.79395" xmlns="http://www.w3.org/2000/svg" xmlns:xlink="http://www.w3.org/1999/xlink">
<defs>
<linearGradient id="linearGradient2999">
<stop offset="0" stop-color="#fff"/>
<stop offset="1" stop-color="#fff" stop-opacity="0"/>
</linearGradient>
<linearGradient gradientTransform="matrix(.39122,-.10876,.10876,.39122,-85.0655,237.17552)" gradientUnits="userSpaceOnUse" id="linearGradient4103" x1="331.3721" x2="339.807" xlink:href="#linearGradient2999" y1="375.1581" y2="628.2059"/>
<linearGradient gradientUnits="userSpaceOnUse" id="linearGradient4105" x1="-25.1851" x2="-17.9465" xlink:href="#linearGradient2999" y1="272.9658" y2="490.126"/>
<linearGradient gradientUnits="userSpaceOnUse" id="linearGradient4107" x1="468.3485" x2="475.5871" xlink:href="#linearGradient2999" y1="1038.5934" y2="1255.7535"/>
<linearGradient gradientUnits="userSpaceOnUse" id="linearGradient4109" x1="147.8012" x2="155.0398" xlink:href="#linearGradient2999" y1="1033.9252" y2="1251.0853"/>
<linearGradient gradientUnits="userSpaceOnUse" id="linearGradient4111" x1="351.6444" x2="358.883" xlink:href="#linearGradient2999" y1="16.2653" y2="233.4254"/>
<linearGradient gradientUnits="userSpaceOnUse" id="linearGradient4113" x1="175.7159" x2="182.9546" xlink:href="#linearGradient2999" y1="689.8544" y2="907.0145"/>
<linearGradient gradientUnits="userSpaceOnUse" id="linearGradient4115" x1="308.2647" x2="315.5034" xlink:href="#linearGradient2999" y1="581.4053" y2="798.5655"/>
<linearGradient gradientUnits="userSpaceOnUse" id="linearGradient4117" x1="565.5794" x2="572.8181" xlink:href="#linearGradient2999" y1="-4.5436" y2="212.6165"/>
<linearGradient gradientTransform="matrix(.72373,.46118,-.46118,.72373,-127.51992,-32.03383)" gradientUnits="userSpaceOnUse" id="linearGradient4119" x1="331.3721" x2="339.807" xlink:href="#linearGradient2999" y1="375.1581" y2="628.2059"/>
<linearGradient gradientUnits="userSpaceOnUse" id="linearGradient3075" x1="350.8801" x2="358.1187" xlink:href="#linearGradient2999" y1="222.614" y2="439.7741"/>
</defs>
<g transform="translate(-42.4539,-62.1095)">
<g transform="matrix(-.41419,.22874,-.22874,-.41419,576.00691,409.05883)">
<path d="m233.7679,440.2276c-3.7499,3.3923-93.2077-24.333-98.2513-23.9702-5.401.3886-96.5914,41.0301-101.2872,38.3336-4.3851-2.5181-5.6607-96.1651-7.5643-100.8497-2.0385-5.0165-68.8704-79.1849-67.7569-84.4841 1.0398-4.9486 89.7092-35.1003 93.5763-38.3584 4.1411-3.489 54.0272-89.9691 59.4111-90.5477 5.0277-.5403 61.104,74.4719 65.3976,77.1429 4.5979,2.8602 102.261,23.581 104.475,28.5226 2.0675,4.6147-51.9448,81.1264-53.1583,86.0353-1.2994,5.2567 9.1736,104.5429 5.1579,108.1756z" fill="#f60" transform="matrix(.72373,.46118,-.46118,.72373,-72.48707,243.36946)"/>
<path d="m117.9375,148.9063c-.0772.0776-.5823.6712-.9375,1.0938 1.3523-.6063 1.0234-1.1801.9375-1.0938zm-5.0938,6.8125c-1.0646,1.5184-1.8344,2.5178-3.0938,4.4063-5.35,8.0226-12.1614,18.9401-18.9688,29.9688s-13.6156,22.1994-19,30.875c-2.6922,4.3378-5.008,8.0282-6.875,10.875-.9335,1.4234-1.7505,2.6464-2.5,3.6875s-.68,1.4927-3.0625,3.5c-2.5218,2.1247-2.9109,1.8853-4.0313,2.4063s-2.3897,1.048-3.875,1.6563c-2.9706,1.2166-6.8047,2.7109-11.2813,4.4063-8.9532,3.3906-20.4325,7.6114-31.7813,11.875s-22.5871,8.57-30.8438,12.0313c-1.6008.6711-2.3703,1.0903-3.7188,1.6875 1.1161,1.484 1.8411,2.5277 3.25,4.3125 5.9747,7.5688 14.2425,17.4595 22.625,27.3438s16.8838,19.7905 23.4688,27.5938c3.2925,3.9016 6.1202,7.2506 8.25,9.9063 1.0649,1.3278 1.9293,2.4655 2.6875,3.5s1.2342,1.1158 2.4063,4c1.2407,3.0531.8819,3.3675 1.0313,4.5938s.2865,2.5872.4063,4.1875c.2396,3.2006.4577,7.3133.6875,12.0938 .4597,9.561.9186,21.7665 1.4688,33.875s1.1955,24.1421 1.9375,33.0625c.1428,1.7172.287,2.5729.4375,4.0313 1.7598-.6043 2.9865-.9591 5.125-1.75 9.0458-3.3453 21.0077-8.1732 33-13.0938s24.0427-9.9279 33.5-13.7813c4.7287-1.9267 8.7845-3.5757 11.9688-4.7813 1.5921-.6028 2.9379-1.0984 4.1563-1.5s1.4556-.8077 4.5625-1.0313c3.2869-.2365 3.4751.2007 4.6875.4375s2.5347.5257 4.0938.9063c3.1181.7611 7.101,1.8352 11.7188,3.0938 9.2355,2.5172 21.001,5.8129 32.6875,9.0313s23.3177,6.3555 32.0313,8.4063c1.6763.3945 2.5359.5051 3.9688.8125-.0309-1.8554-.003-3.1359-.0937-5.4063-.386-9.6323-1.2766-22.4549-2.25-35.375s-2.0081-25.9441-2.75-36.125c-.371-5.0904-.6813-9.4753-.8438-12.875-.0813-1.6999-.1195-3.1237-.125-4.4063s-.341-1.6023.4063-4.625c.7908-3.1992 1.2438-3.2639 1.8438-4.3438s1.3125-2.2599 2.1563-3.625c1.6874-2.7302 3.9073-6.1848 6.5313-10.1875 5.2479-8.0054 12.0466-18.1617 18.7188-28.2813s13.232-20.2219 17.875-27.875c.8939-1.4735 1.2644-2.2627 2-3.5313-1.7719-.5431-2.9732-.9799-5.1563-1.5938-9.2844-2.6107-21.781-5.7441-34.375-8.8125s-25.3028-6.0583-35.2188-8.5c-4.958-1.2208-9.1841-2.2911-12.4688-3.1875-1.6423-.4482-3.0596-.8588-4.2813-1.25s-1.6053-.1985-4.25-1.8438c-2.8-1.7418-2.7209-2.1892-3.5625-3.0938s-1.7439-1.9317-2.7813-3.1563c-2.0746-2.4491-4.6612-5.6418-7.6563-9.375-5.9901-7.4665-13.5649-17.0565-21.125-26.5313s-15.1268-18.8429-20.9688-25.625c-1.129-1.3107-1.7682-1.905-2.75-3zm161.2813,98.125c1.0108,1.134 1.4847.618 1.375.5625-.1019-.0515-.8278-.3422-1.375-.5625zm-305.0313,12.2188c-.1328-.008-.2089.0833-.1875.125 .0519.1011.4703.7533.7813,1.25-.09-.958-.3759-1.3625-.5938-1.375zm254.9063,169.3125c-.7534,1.2997-.1438,1.5895-.125,1.4688 .0173-.1113.0849-.8909.125-1.4688zm-189.1563,8.2188c-.6266.0788-.5612.5462-.4688.5313 .1116-.018.874-.2029 1.4375-.3438-.361-.0799-.7702-.2125-.9688-.1875z" fill="#fff" transform="matrix(.72373,.46118,-.46118,.72373,-72.48707,243.36946)"/>
<path d="m129.6563,160.5625c.6946-.6988.311-.3466-.25.375-.4403.5663-1.5824,2.2591-2.3125,3.2813 2.6415-1.6373 2.1593-3.2506 2.5625-3.6563zm-15.125,22.9375c-3.2861,5.1944-6.1765,9.593-9.6875,15.2813-6.7714,10.9704-13.5508,22.1263-19,30.9063-2.7246,4.39-5.1081,8.1746-7.125,11.25-1.0084,1.5377-1.9147,2.8727-2.9063,4.25s-.1204,1.673-5.8125,6.4688c-6.075,5.1184-6.1961,4.0733-7.7188,4.7813s-2.9733,1.3051-4.5938,1.9688c-3.2408,1.3273-7.1496,2.844-11.6875,4.5625-9.0758,3.4371-20.5321,7.6683-31.8125,11.9063-5.0046,1.8802-8.7627,3.4119-13.4375,5.2188 3.9248,4.7331 7.2372,8.8373 11.5625,13.9375 8.3382,9.832 16.8359,19.728 23.5,27.625 3.332,3.9485 6.168,7.3812 8.4688,10.25 1.1504,1.4344 2.1533,2.6941 3.1563,4.0625s1.5751.6723 4.375,7.5625c2.9886,7.3546 1.9533,7.1461 2.1563,8.8125s.3381,3.2229.4688,4.9688c.2614,3.4917.4858,7.654.7188,12.5 .466,9.6919.9219,21.9019 1.4688,33.9375 .2429,5.3455.5687,9.398.8438,14.4063 5.7161-2.2718 10.6543-4.1479 16.8438-6.6875 11.929-4.8945 23.9602-9.9128 33.5313-13.8125 4.7855-1.9498 8.9352-3.6352 12.375-4.9375 1.7199-.6512 3.2321-1.1874 4.8438-1.7188s1.1087-1.3097 8.5313-1.8438c7.918-.5697 7.3837.3656 9.0313.6875s3.1742.6786 4.875,1.0938c3.4016.8304 7.444,1.9117 12.125,3.1875 9.362,2.5517 21.1026,5.8635 32.7188,9.0625 5.1498,1.4182 9.0969,2.3723 13.9375,3.6563-.3938-6.1307-.6231-11.4006-1.125-18.0625-.9683-12.8517-2.0304-25.8216-2.7813-36.125-.3754-5.1517-.6682-9.6085-.8438-13.2813-.0878-1.8364-.149-3.4595-.1563-5.1563s-.8788-1.4349.9063-8.6563c1.905-7.7065 2.6223-6.9388 3.4375-8.4063s1.6108-2.792 2.5313-4.2813c1.8409-2.9785 4.1214-6.505 6.7813-10.5625 5.3198-8.115 12.118-18.2538 18.75-28.3125 2.9416-4.4615 5.0632-7.9164 7.7813-12.125-5.9652-1.5236-11.0553-2.9146-17.5625-4.5-12.5275-3.0522-25.2149-6.0602-35.25-8.5313-5.0176-1.2355-9.358-2.3442-12.9063-3.3125-1.7741-.4842-3.3214-.92-4.9375-1.4375s-1.6503.3993-7.9688-3.5313c-6.7453-4.1961-5.7624-4.6456-6.9063-5.875s-2.1808-2.414-3.3125-3.75c-2.2635-2.672-4.9014-5.9343-7.9375-9.7188-6.0722-7.5688-13.6104-17.1448-21.125-26.5625-3.3314-4.1751-5.9648-7.2715-9.125-11.1563zm-130.9063,75.125c-.4495-.8761-.2628-.4131.25.3438 .4111.6068 1.6997,2.2412 2.4688,3.2813-.7307-3.0863-2.4559-3.1126-2.7188-3.625zm280.0938,9.2188c2.3913,2.0402 3.8003,1.0535 4.3125,1.3125 .8786.4444.4537.1858-.4063-.125-.6844-.2474-2.685-.8019-3.9063-1.1875zm-228.9688,158.4375c-2.0869.1983-2.514,1.4528-3,1.5313-.9721.1569-.4722.0978.4063-.1563 .697-.2016 2.634-.9083 3.8438-1.3125-.4486-.0354-.9022-.0955-1.25-.0625zm172.7188,3.5313c-1.1849,2.8871.1505,3.9026.0625,4.4688-.1513.9738-.0299.4756 0-.4375 .0236-.7204-.0522-2.7665-.0625-4.0313z" fill="#f60" transform="matrix(.72373,.46118,-.46118,.72373,-72.48707,243.36946)"/>
<path d="m-52.3005,419.2815c.0993-.0292.005-.003-.4073.0903-.0714.016-.1303.0592-.2058.1233 .2733-.0924.5326-.1898.6131-.2135zm-.6131.2135c-.0636.0215-.0783.008-.1481.0328-.5798.2068-2.1871.9052-3.1869,1.3083 2.2694.0283 2.9042-.9754 3.335-1.3411zm-21.3189,9.502c-4.7738,2.2439-8.8942,4.0943-14.0585,6.5919-9.9599,4.8168-20.0113,9.7642-28.0041,13.6055-3.9964,1.9206-7.4668,3.5604-10.3448,4.8561-1.439.6478-2.7105,1.196-4.0633,1.7356s-.8587,1.1553-7.1899,2.001c-6.7572.9027-6.3628.0905-7.7913-.0994s-2.7538-.4267-4.2326-.6937c-2.9576-.534-6.4859-1.239-10.5627-2.088-8.1536-1.698-18.3961-3.9191-28.5146-6.0543-4.4891-.9473-7.9153-1.5719-12.1319-2.4201 .6577,5.2355 1.1622,9.7334 1.9405,15.4194 1.5003,10.9611 3.0866,22.0421 4.2677,30.8307 .5905,4.3943 1.0599,8.1866 1.402,11.3238 .1711,1.5686.316,2.9429.4107,4.3957s.8299,1.2129-.3213,7.4909c-1.2288,6.701-1.882,6.0726-2.5036,7.3723s-1.2417,2.4884-1.9522,3.8122c-1.4211,2.6476-3.1783,5.7635-5.2445,9.3781-4.1325,7.2292-9.4334,16.2762-14.5882,25.239-2.2895,3.9807-3.9226,7.0639-6.0332,10.8154 5.1847.992 9.6238,1.9115 15.2745,2.928 7.1389,1.2842 14.0787,2.5118 20.6465,3.68 1.9964-13.5392 6.7926-26.8287 14.5781-39.0466 23.647-37.1096 67.9115-53.3737 109.546-44.0074-.4688-.7855-1.0486-1.8516-1.812-3.4443-2.9466-6.1476-2.028-6.0196-2.2889-7.4369s-.465-2.7528-.668-4.2416c-.4059-2.9777-.8105-6.5553-1.2626-10.6944-.9041-8.2781-1.9435-18.685-3.0388-28.9664-.4856-4.558-.9635-8.0135-1.459-12.2824zm-129.3458-5.8155c.0003.079-.0211.089-.0187.1789 .0177.6287.1965,2.4059.2735,3.5133 .7827-2.2493-.0613-3.1715-.2549-3.6922zm-40.3594,144.7305c-1.4016-.7166-2.2467-.2695-2.6984-.2567 .0817.0259.0923.0277.1871.0557 .5974.1756 2.3252.5574 3.3871.8227-.3083-.2325-.6089-.4852-.8759-.6217zm-2.6984-.2567c-.5667-.1792-.857-.3112-.1789-.0187 .0482.0213.1144.0205.1789.0187z" fill="url(#linearGradient4119)"/>
</g>
<g transform="matrix(.47316,0,0,.47316,332.86603,205.72636)">
<path d="m233.7679,440.2276c-3.7499,3.3923-93.2077-24.333-98.2513-23.9702-5.401.3886-96.5914,41.0301-101.2872,38.3336-4.3851-2.5181-5.6607-96.1651-7.5643-100.8497-2.0385-5.0165-68.8704-79.1849-67.7569-84.4841 1.0398-4.9486 89.7092-35.1003 93.5763-38.3584 4.1411-3.489 54.0272-89.9691 59.4111-90.5477 5.0277-.5403 61.104,74.4719 65.3976,77.1429 4.5979,2.8602 102.261,23.581 104.475,28.5226 2.0675,4.6147-51.9448,81.1264-53.1583,86.0353-1.2994,5.2567 9.1736,104.5429 5.1579,108.1756z" fill="#fd5" transform="matrix(.85818,0,0,.85818,475.61308,-123.81347)"/>
<path d="m117.9375,148.9063c-.0772.0776-.5823.6712-.9375,1.0938 1.3523-.6063 1.0234-1.1801.9375-1.0938zm-5.0938,6.8125c-1.0646,1.5184-1.8344,2.5178-3.0938,4.4063-5.35,8.0226-12.1614,18.9401-18.9688,29.9688s-13.6156,22.1994-19,30.875c-2.6922,4.3378-5.008,8.0282-6.875,10.875-.9335,1.4234-1.7505,2.6464-2.5,3.6875s-.68,1.4927-3.0625,3.5c-2.5218,2.1247-2.9109,1.8853-4.0313,2.4063s-2.3897,1.048-3.875,1.6563c-2.9706,1.2166-6.8047,2.7109-11.2813,4.4063-8.9532,3.3906-20.4325,7.6114-31.7813,11.875s-22.5871,8.57-30.8438,12.0313c-1.6008.6711-2.3703,1.0903-3.7188,1.6875 1.1161,1.484 1.8411,2.5277 3.25,4.3125 5.9747,7.5688 14.2425,17.4595 22.625,27.3438s16.8838,19.7905 23.4688,27.5938c3.2925,3.9016 6.1202,7.2506 8.25,9.9063 1.0649,1.3278 1.9293,2.4655 2.6875,3.5s1.2342,1.1158 2.4063,4c1.2407,3.0531.8819,3.3675 1.0313,4.5938s.2865,2.5872.4063,4.1875c.2396,3.2006.4577,7.3133.6875,12.0938 .4597,9.561.9186,21.7665 1.4688,33.875s1.1955,24.1421 1.9375,33.0625c.1428,1.7172.287,2.5729.4375,4.0313 1.7598-.6043 2.9865-.9591 5.125-1.75 9.0458-3.3453 21.0077-8.1732 33-13.0938s24.0427-9.9279 33.5-13.7813c4.7287-1.9267 8.7845-3.5757 11.9688-4.7813 1.5921-.6028 2.9379-1.0984 4.1563-1.5s1.4556-.8077 4.5625-1.0313c3.2869-.2365 3.4751.2007 4.6875.4375s2.5347.5257 4.0938.9063c3.1181.7611 7.101,1.8352 11.7188,3.0938 9.2355,2.5172 21.001,5.8129 32.6875,9.0313s23.3177,6.3555 32.0313,8.4063c1.6763.3945 2.5359.5051 3.9688.8125-.0309-1.8554-.003-3.1359-.0937-5.4063-.386-9.6323-1.2766-22.4549-2.25-35.375s-2.0081-25.9441-2.75-36.125c-.371-5.0904-.6813-9.4753-.8438-12.875-.0813-1.6999-.1195-3.1237-.125-4.4063s-.341-1.6023.4063-4.625c.7908-3.1992 1.2438-3.2639 1.8438-4.3438s1.3125-2.2599 2.1563-3.625c1.6874-2.7302 3.9073-6.1848 6.5313-10.1875 5.2479-8.0054 12.0466-18.1617 18.7188-28.2813s13.232-20.2219 17.875-27.875c.8939-1.4735 1.2644-2.2627 2-3.5313-1.7719-.5431-2.9732-.9799-5.1563-1.5938-9.2844-2.6107-21.781-5.7441-34.375-8.8125s-25.3028-6.0583-35.2188-8.5c-4.958-1.2208-9.1841-2.2911-12.4688-3.1875-1.6423-.4482-3.0596-.8588-4.2813-1.25s-1.6053-.1985-4.25-1.8438c-2.8-1.7418-2.7209-2.1892-3.5625-3.0938s-1.7439-1.9317-2.7813-3.1563c-2.0746-2.4491-4.6612-5.6418-7.6563-9.375-5.9901-7.4665-13.5649-17.0565-21.125-26.5313s-15.1268-18.8429-20.9688-25.625c-1.129-1.3107-1.7682-1.905-2.75-3zm161.2813,98.125c1.0108,1.134 1.4847.618 1.375.5625-.1019-.0515-.8278-.3422-1.375-.5625zm-305.0313,12.2188c-.1328-.008-.2089.0833-.1875.125 .0519.1011.4703.7533.7813,1.25-.09-.958-.3759-1.3625-.5938-1.375zm254.9063,169.3125c-.7534,1.2997-.1438,1.5895-.125,1.4688 .0173-.1113.0849-.8909.125-1.4688zm-189.1563,8.2188c-.6266.0788-.5612.5462-.4688.5313 .1116-.018.874-.2029 1.4375-.3438-.361-.0799-.7702-.2125-.9688-.1875z" fill="#fff" transform="matrix(.85818,0,0,.85818,475.61308,-123.81347)"/>
<path d="m129.6563,160.5625c.6946-.6988.311-.3466-.25.375-.4403.5663-1.5824,2.2591-2.3125,3.2813 2.6415-1.6373 2.1593-3.2506 2.5625-3.6563zm-15.125,22.9375c-3.2861,5.1944-6.1765,9.593-9.6875,15.2813-6.7714,10.9704-13.5508,22.1263-19,30.9063-2.7246,4.39-5.1081,8.1746-7.125,11.25-1.0084,1.5377-1.9147,2.8727-2.9063,4.25s-.1204,1.673-5.8125,6.4688c-6.075,5.1184-6.1961,4.0733-7.7188,4.7813s-2.9733,1.3051-4.5938,1.9688c-3.2408,1.3273-7.1496,2.844-11.6875,4.5625-9.0758,3.4371-20.5321,7.6683-31.8125,11.9063-5.0046,1.8802-8.7627,3.4119-13.4375,5.2188 3.9248,4.7331 7.2372,8.8373 11.5625,13.9375 8.3382,9.832 16.8359,19.728 23.5,27.625 3.332,3.9485 6.168,7.3812 8.4688,10.25 1.1504,1.4344 2.1533,2.6941 3.1563,4.0625s1.5751.6723 4.375,7.5625c2.9886,7.3546 1.9533,7.1461 2.1563,8.8125s.3381,3.2229.4688,4.9688c.2614,3.4917.4858,7.654.7188,12.5 .466,9.6919.9219,21.9019 1.4688,33.9375 .2429,5.3455.5687,9.398.8438,14.4063 5.7161-2.2718 10.6543-4.1479 16.8438-6.6875 11.929-4.8945 23.9602-9.9128 33.5313-13.8125 4.7855-1.9498 8.9352-3.6352 12.375-4.9375 1.7199-.6512 3.2321-1.1874 4.8438-1.7188s1.1087-1.3097 8.5313-1.8438c7.918-.5697 7.3837.3656 9.0313.6875s3.1742.6786 4.875,1.0938c3.4016.8304 7.444,1.9117 12.125,3.1875 9.362,2.5517 21.1026,5.8635 32.7188,9.0625 5.1498,1.4182 9.0969,2.3723 13.9375,3.6563-.3938-6.1307-.6231-11.4006-1.125-18.0625-.9683-12.8517-2.0304-25.8216-2.7813-36.125-.3754-5.1517-.6682-9.6085-.8438-13.2813-.0878-1.8364-.149-3.4595-.1563-5.1563s-.8788-1.4349.9063-8.6563c1.905-7.7065 2.6223-6.9388 3.4375-8.4063s1.6108-2.792 2.5313-4.2813c1.8409-2.9785 4.1214-6.505 6.7813-10.5625 5.3198-8.115 12.118-18.2538 18.75-28.3125 2.9416-4.4615 5.0632-7.9164 7.7813-12.125-5.9652-1.5236-11.0553-2.9146-17.5625-4.5-12.5275-3.0522-25.2149-6.0602-35.25-8.5313-5.0176-1.2355-9.358-2.3442-12.9063-3.3125-1.7741-.4842-3.3214-.92-4.9375-1.4375s-1.6503.3993-7.9688-3.5313c-6.7453-4.1961-5.7624-4.6456-6.9063-5.875s-2.1808-2.414-3.3125-3.75c-2.2635-2.672-4.9014-5.9343-7.9375-9.7188-6.0722-7.5688-13.6104-17.1448-21.125-26.5625-3.3314-4.1751-5.9648-7.2715-9.125-11.1563zm-130.9063,75.125c-.4495-.8761-.2628-.4131.25.3438 .4111.6068 1.6997,2.2412 2.4688,3.2813-.7307-3.0863-2.4559-3.1126-2.7188-3.625zm280.0938,9.2188c2.3913,2.0402 3.8003,1.0535 4.3125,1.3125 .8786.4444.4537.1858-.4063-.125-.6844-.2474-2.685-.8019-3.9063-1.1875zm-228.9688,158.4375c-2.0869.1983-2.514,1.4528-3,1.5313-.9721.1569-.4722.0978.4063-.1563 .697-.2016 2.634-.9083 3.8438-1.3125-.4486-.0354-.9022-.0955-1.25-.0625zm172.7188,3.5313c-1.1849,2.8871.1505,3.9026.0625,4.4688-.1513.9738-.0299.4756 0-.4375 .0236-.7204-.0522-2.7665-.0625-4.0313z" fill="#fd5" transform="matrix(.85818,0,0,.85818,475.61308,-123.81347)"/>
<path d="m587.1705,13.691c.068-.078.003-.005-.295.295-.0516.0519-.0781.12-.1073.2145 .1808-.2248.3471-.4463.4023-.5095zm-.4023.5095c-.0421.0523-.0618.0488-.1073.1073-.3779.486-1.358,1.9387-1.9845,2.8159 1.929-1.1957 1.9251-2.3832 2.0918-2.9232zm-12.8727,19.4699c-2.8201,4.4577-5.3005,8.2325-8.3136,13.114-5.811,9.4145-11.629,18.9883-16.3054,26.5231-2.3382,3.7674-4.3837,7.0152-6.1145,9.6545-.8654,1.3196-1.6432,2.4653-2.4941,3.6473s-.1034,1.4358-4.9882,5.5513c-5.2134,4.3925-5.3174,3.4956-6.6241,4.1032s-2.5517,1.12-3.9423,1.6895c-2.7812,1.139-6.1356,2.4406-10.03,3.9154-7.7887,2.9497-17.6202,6.5808-27.3008,10.2177-4.2948,1.6135-7.52,2.928-11.5318,4.4786 3.3682,4.0619 6.2108,7.584 9.9227,11.9609 7.1556,8.4376 14.4482,16.9301 20.1672,23.7072 2.8595,3.3885 5.2932,6.3344 7.2677,8.7963 .9872,1.231 1.8479,2.312 2.7086,3.4863s1.3517.5769 3.7545,6.49c2.5648,6.3115 1.6762,6.1326 1.8504,7.5627s.2901,2.7658.4023,4.2641c.2243,2.9965.4169,6.5685.6168,10.7272 .3999,8.3174.7912,18.7957 1.2605,29.1244 .2084,4.5874.488,8.0652.7241,12.3631 4.9055-1.9496 9.1433-3.5597 14.455-5.7391 6.7106-2.7534 13.2229-5.4474 19.3895-7.9918-5.5923-12.4909-8.6891-26.2758-8.6891-40.7635 0-44.0035 28.5896-81.5068 68.7347-95.9819-.8175-.4106-1.8794-.998-3.3791-1.9309-5.7887-3.601-4.9452-3.9867-5.9268-5.0418s-1.8715-2.0716-2.8427-3.2182c-1.9424-2.2931-4.2063-5.0927-6.8118-8.3404-5.211-6.4954-11.6802-14.7133-18.129-22.7954-2.8589-3.583-5.1189-6.2403-7.8309-9.5741zm-112.2068,64.6047c.0427.0665.03.0864.0804.1609 .3528.5207 1.4586,1.9234 2.1186,2.8159-.5487-2.3175-1.756-2.6417-2.1991-2.9768zm43.7403,143.7449c-1.5671.1489-2.0396.9801-2.4136,1.2336l.1877-.0536c.5981-.173 2.2605-.7795 3.2986-1.1264-.385-.0304-.7742-.082-1.0727-.0536zm-2.4136,1.2336c-.5742.1534-.89.1981-.1609.0804 .0521-.008.1075-.0442.1609-.0804z" fill="url(#linearGradient4117)"/>
</g>
<g transform="matrix(.43894,.17666,-.17666,.43894,425.89989,261.20235)">
<path d="m233.7679,440.2276c-3.7499,3.3923-93.2077-24.333-98.2513-23.9702-5.401.3886-96.5914,41.0301-101.2872,38.3336-4.3851-2.5181-5.6607-96.1651-7.5643-100.8497-2.0385-5.0165-68.8704-79.1849-67.7569-84.4841 1.0398-4.9486 89.7092-35.1003 93.5763-38.3584 4.1411-3.489 54.0272-89.9691 59.4111-90.5477 5.0277-.5403 61.104,74.4719 65.3976,77.1429 4.5979,2.8602 102.261,23.581 104.475,28.5226 2.0675,4.6147-51.9448,81.1264-53.1583,86.0353-1.2994,5.2567 9.1736,104.5429 5.1579,108.1756z" fill="#f5d" transform="matrix(.85818,0,0,.85818,218.29838,462.13551)"/>
<path d="m117.9375,148.9063c-.0772.0776-.5823.6712-.9375,1.0938 1.3523-.6063 1.0234-1.1801.9375-1.0938zm-5.0938,6.8125c-1.0646,1.5184-1.8344,2.5178-3.0938,4.4063-5.35,8.0226-12.1614,18.9401-18.9688,29.9688s-13.6156,22.1994-19,30.875c-2.6922,4.3378-5.008,8.0282-6.875,10.875-.9335,1.4234-1.7505,2.6464-2.5,3.6875s-.68,1.4927-3.0625,3.5c-2.5218,2.1247-2.9109,1.8853-4.0313,2.4063s-2.3897,1.048-3.875,1.6563c-2.9706,1.2166-6.8047,2.7109-11.2813,4.4063-8.9532,3.3906-20.4325,7.6114-31.7813,11.875s-22.5871,8.57-30.8438,12.0313c-1.6008.6711-2.3703,1.0903-3.7188,1.6875 1.1161,1.484 1.8411,2.5277 3.25,4.3125 5.9747,7.5688 14.2425,17.4595 22.625,27.3438s16.8838,19.7905 23.4688,27.5938c3.2925,3.9016 6.1202,7.2506 8.25,9.9063 1.0649,1.3278 1.9293,2.4655 2.6875,3.5s1.2342,1.1158 2.4063,4c1.2407,3.0531.8819,3.3675 1.0313,4.5938s.2865,2.5872.4063,4.1875c.2396,3.2006.4577,7.3133.6875,12.0938 .4597,9.561.9186,21.7665 1.4688,33.875s1.1955,24.1421 1.9375,33.0625c.1428,1.7172.287,2.5729.4375,4.0313 1.7598-.6043 2.9865-.9591 5.125-1.75 9.0458-3.3453 21.0077-8.1732 33-13.0938s24.0427-9.9279 33.5-13.7813c4.7287-1.9267 8.7845-3.5757 11.9688-4.7813 1.5921-.6028 2.9379-1.0984 4.1563-1.5s1.4556-.8077 4.5625-1.0313c3.2869-.2365 3.4751.2007 4.6875.4375s2.5347.5257 4.0938.9063c3.1181.7611 7.101,1.8352 11.7188,3.0938 9.2355,2.5172 21.001,5.8129 32.6875,9.0313s23.3177,6.3555 32.0313,8.4063c1.6763.3945 2.5359.5051 3.9688.8125-.0309-1.8554-.003-3.1359-.0937-5.4063-.386-9.6323-1.2766-22.4549-2.25-35.375s-2.0081-25.9441-2.75-36.125c-.371-5.0904-.6813-9.4753-.8438-12.875-.0813-1.6999-.1195-3.1237-.125-4.4063s-.341-1.6023.4063-4.625c.7908-3.1992 1.2438-3.2639 1.8438-4.3438s1.3125-2.2599 2.1563-3.625c1.6874-2.7302 3.9073-6.1848 6.5313-10.1875 5.2479-8.0054 12.0466-18.1617 18.7188-28.2813s13.232-20.2219 17.875-27.875c.8939-1.4735 1.2644-2.2627 2-3.5313-1.7719-.5431-2.9732-.9799-5.1563-1.5938-9.2844-2.6107-21.781-5.7441-34.375-8.8125s-25.3028-6.0583-35.2188-8.5c-4.958-1.2208-9.1841-2.2911-12.4688-3.1875-1.6423-.4482-3.0596-.8588-4.2813-1.25s-1.6053-.1985-4.25-1.8438c-2.8-1.7418-2.7209-2.1892-3.5625-3.0938s-1.7439-1.9317-2.7813-3.1563c-2.0746-2.4491-4.6612-5.6418-7.6563-9.375-5.9901-7.4665-13.5649-17.0565-21.125-26.5313s-15.1268-18.8429-20.9688-25.625c-1.129-1.3107-1.7682-1.905-2.75-3zm161.2813,98.125c1.0108,1.134 1.4847.618 1.375.5625-.1019-.0515-.8278-.3422-1.375-.5625zm-305.0313,12.2188c-.1328-.008-.2089.0833-.1875.125 .0519.1011.4703.7533.7813,1.25-.09-.958-.3759-1.3625-.5938-1.375zm254.9063,169.3125c-.7534,1.2997-.1438,1.5895-.125,1.4688 .0173-.1113.0849-.8909.125-1.4688zm-189.1563,8.2188c-.6266.0788-.5612.5462-.4688.5313 .1116-.018.874-.2029 1.4375-.3438-.361-.0799-.7702-.2125-.9688-.1875z" fill="#fff" transform="matrix(.85818,0,0,.85818,218.29838,462.13551)"/>
<path d="m129.6563,160.5625c.6946-.6988.311-.3466-.25.375-.4403.5663-1.5824,2.2591-2.3125,3.2813 2.6415-1.6373 2.1593-3.2506 2.5625-3.6563zm-15.125,22.9375c-3.2861,5.1944-6.1765,9.593-9.6875,15.2813-6.7714,10.9704-13.5508,22.1263-19,30.9063-2.7246,4.39-5.1081,8.1746-7.125,11.25-1.0084,1.5377-1.9147,2.8727-2.9063,4.25s-.1204,1.673-5.8125,6.4688c-6.075,5.1184-6.1961,4.0733-7.7188,4.7813s-2.9733,1.3051-4.5938,1.9688c-3.2408,1.3273-7.1496,2.844-11.6875,4.5625-9.0758,3.4371-20.5321,7.6683-31.8125,11.9063-5.0046,1.8802-8.7627,3.4119-13.4375,5.2188 3.9248,4.7331 7.2372,8.8373 11.5625,13.9375 8.3382,9.832 16.8359,19.728 23.5,27.625 3.332,3.9485 6.168,7.3812 8.4688,10.25 1.1504,1.4344 2.1533,2.6941 3.1563,4.0625s1.5751.6723 4.375,7.5625c2.9886,7.3546 1.9533,7.1461 2.1563,8.8125s.3381,3.2229.4688,4.9688c.2614,3.4917.4858,7.654.7188,12.5 .466,9.6919.9219,21.9019 1.4688,33.9375 .2429,5.3455.5687,9.398.8438,14.4063 5.7161-2.2718 10.6543-4.1479 16.8438-6.6875 11.929-4.8945 23.9602-9.9128 33.5313-13.8125 4.7855-1.9498 8.9352-3.6352 12.375-4.9375 1.7199-.6512 3.2321-1.1874 4.8438-1.7188s1.1087-1.3097 8.5313-1.8438c7.918-.5697 7.3837.3656 9.0313.6875s3.1742.6786 4.875,1.0938c3.4016.8304 7.444,1.9117 12.125,3.1875 9.362,2.5517 21.1026,5.8635 32.7188,9.0625 5.1498,1.4182 9.0969,2.3723 13.9375,3.6563-.3938-6.1307-.6231-11.4006-1.125-18.0625-.9683-12.8517-2.0304-25.8216-2.7813-36.125-.3754-5.1517-.6682-9.6085-.8438-13.2813-.0878-1.8364-.149-3.4595-.1563-5.1563s-.8788-1.4349.9063-8.6563c1.905-7.7065 2.6223-6.9388 3.4375-8.4063s1.6108-2.792 2.5313-4.2813c1.8409-2.9785 4.1214-6.505 6.7813-10.5625 5.3198-8.115 12.118-18.2538 18.75-28.3125 2.9416-4.4615 5.0632-7.9164 7.7813-12.125-5.9652-1.5236-11.0553-2.9146-17.5625-4.5-12.5275-3.0522-25.2149-6.0602-35.25-8.5313-5.0176-1.2355-9.358-2.3442-12.9063-3.3125-1.7741-.4842-3.3214-.92-4.9375-1.4375s-1.6503.3993-7.9688-3.5313c-6.7453-4.1961-5.7624-4.6456-6.9063-5.875s-2.1808-2.414-3.3125-3.75c-2.2635-2.672-4.9014-5.9343-7.9375-9.7188-6.0722-7.5688-13.6104-17.1448-21.125-26.5625-3.3314-4.1751-5.9648-7.2715-9.125-11.1563zm-130.9063,75.125c-.4495-.8761-.2628-.4131.25.3438 .4111.6068 1.6997,2.2412 2.4688,3.2813-.7307-3.0863-2.4559-3.1126-2.7188-3.625zm280.0938,9.2188c2.3913,2.0402 3.8003,1.0535 4.3125,1.3125 .8786.4444.4537.1858-.4063-.125-.6844-.2474-2.685-.8019-3.9063-1.1875zm-228.9688,158.4375c-2.0869.1983-2.514,1.4528-3,1.5313-.9721.1569-.4722.0978.4063-.1563 .697-.2016 2.634-.9083 3.8438-1.3125-.4486-.0354-.9022-.0955-1.25-.0625zm172.7188,3.5313c-1.1849,2.8871.1505,3.9026.0625,4.4688-.1513.9738-.0299.4756 0-.4375 .0236-.7204-.0522-2.7665-.0625-4.0313z" fill="#f5d" transform="matrix(.85818,0,0,.85818,218.29838,462.13551)"/>
<path d="m329.8558,599.64c.068-.078.003-.005-.295.295-.0516.0519-.0781.12-.1073.2145 .1808-.2248.3471-.4463.4023-.5095zm-.4023.5095c-.0421.0523-.0618.0488-.1073.1073-.3779.486-1.358,1.9387-1.9845,2.8159 1.929-1.1957 1.9251-2.3832 2.0918-2.9232zm-12.8727,19.4699c-2.8201,4.4577-5.3005,8.2325-8.3136,13.114-5.811,9.4145-11.629,18.9883-16.3054,26.5231-2.3382,3.7674-4.3837,7.0152-6.1145,9.6545-.8654,1.3196-1.6432,2.4653-2.4941,3.6473s-.1034,1.4358-4.9882,5.5513c-5.2134,4.3925-5.3174,3.4956-6.6241,4.1032s-2.5517,1.12-3.9423,1.6895c-2.7812,1.139-6.1356,2.4406-10.03,3.9154-7.7887,2.9497-17.6202,6.5808-27.3008,10.2177-4.2948,1.6135-7.52,2.928-11.5318,4.4786 3.3682,4.0619 6.2108,7.584 9.9227,11.9609 7.1556,8.4376 14.4482,16.9301 20.1672,23.7072 2.8595,3.3885 5.2932,6.3344 7.2677,8.7963 .9872,1.231 1.8479,2.312 2.7086,3.4863s1.3517.5769 3.7545,6.49c2.5648,6.3115 1.6762,6.1326 1.8504,7.5627s.2901,2.7658.4023,4.2641c.2243,2.9965.4169,6.5685.6168,10.7272 .3999,8.3174.7912,18.7957 1.2605,29.1244 .2084,4.5874.488,8.0652.7241,12.3631 4.9055-1.9496 9.1433-3.5597 14.455-5.7391 6.7106-2.7534 13.2229-5.4474 19.3895-7.9918-5.5923-12.4909-8.6891-26.2758-8.6891-40.7635 0-44.0035 28.5896-81.5067 68.7347-95.9819-.8175-.4106-1.8794-.998-3.3791-1.9309-5.7887-3.601-4.9452-3.9867-5.9268-5.0418s-1.8715-2.0716-2.8427-3.2182c-1.9424-2.2931-4.2063-5.0927-6.8118-8.3404-5.211-6.4954-11.6802-14.7133-18.129-22.7954-2.8589-3.583-5.1189-6.2403-7.8309-9.5741zm-112.2068,64.6048c.0427.0665.03.0864.0804.1609 .3528.5207 1.4586,1.9234 2.1186,2.8159-.5487-2.3175-1.756-2.6417-2.1991-2.9768zm43.7403,143.7449c-1.5671.1489-2.0396.9801-2.4136,1.2336l.1877-.0536c.5981-.173 2.2605-.7795 3.2986-1.1264-.385-.0304-.7742-.082-1.0727-.0536zm-2.4136,1.2336c-.5742.1534-.89.1981-.1609.0804 .0521-.008.1075-.0442.1609-.0804z" fill="url(#linearGradient4115)"/>
</g>
<g transform="matrix(.46051,.10867,-.10867,.46051,178.00154,149.22285)">
<path d="m233.7679,440.2276c-3.7499,3.3923-93.2077-24.333-98.2513-23.9702-5.401.3886-96.5914,41.0301-101.2872,38.3336-4.3851-2.5181-5.6607-96.1651-7.5643-100.8497-2.0385-5.0165-68.8704-79.1849-67.7569-84.4841 1.0398-4.9486 89.7092-35.1003 93.5763-38.3584 4.1411-3.489 54.0272-89.9691 59.4111-90.5477 5.0277-.5403 61.104,74.4719 65.3976,77.1429 4.5979,2.8602 102.261,23.581 104.475,28.5226 2.0675,4.6147-51.9448,81.1264-53.1583,86.0353-1.2994,5.2567 9.1736,104.5429 5.1579,108.1756z" transform="matrix(.85818,0,0,.85818,85.74955,570.58456)"/>
<path d="m117.9375,148.9063c-.0772.0776-.5823.6712-.9375,1.0938 1.3523-.6063 1.0234-1.1801.9375-1.0938zm-5.0938,6.8125c-1.0646,1.5184-1.8344,2.5178-3.0938,4.4063-5.35,8.0226-12.1614,18.9401-18.9688,29.9688s-13.6156,22.1994-19,30.875c-2.6922,4.3378-5.008,8.0282-6.875,10.875-.9335,1.4234-1.7505,2.6464-2.5,3.6875s-.68,1.4927-3.0625,3.5c-2.5218,2.1247-2.9109,1.8853-4.0313,2.4063s-2.3897,1.048-3.875,1.6563c-2.9706,1.2166-6.8047,2.7109-11.2813,4.4063-8.9532,3.3906-20.4325,7.6114-31.7813,11.875s-22.5871,8.57-30.8438,12.0313c-1.6008.6711-2.3703,1.0903-3.7188,1.6875 1.1161,1.484 1.8411,2.5277 3.25,4.3125 5.9747,7.5688 14.2425,17.4595 22.625,27.3438s16.8838,19.7905 23.4688,27.5938c3.2925,3.9016 6.1202,7.2506 8.25,9.9063 1.0649,1.3278 1.9293,2.4655 2.6875,3.5s1.2342,1.1158 2.4063,4c1.2407,3.0531.8819,3.3675 1.0313,4.5938s.2865,2.5872.4063,4.1875c.2396,3.2006.4577,7.3133.6875,12.0938 .4597,9.561.9186,21.7665 1.4688,33.875s1.1955,24.1421 1.9375,33.0625c.1428,1.7172.287,2.5729.4375,4.0313 1.7598-.6043 2.9865-.9591 5.125-1.75 9.0458-3.3453 21.0077-8.1732 33-13.0938s24.0427-9.9279 33.5-13.7813c4.7287-1.9267 8.7845-3.5757 11.9688-4.7813 1.5921-.6028 2.9379-1.0984 4.1563-1.5s1.4556-.8077 4.5625-1.0313c3.2869-.2365 3.4751.2007 4.6875.4375s2.5347.5257 4.0938.9063c3.1181.7611 7.101,1.8352 11.7188,3.0938 9.2355,2.5172 21.001,5.8129 32.6875,9.0313s23.3177,6.3555 32.0313,8.4063c1.6763.3945 2.5359.5051 3.9688.8125-.0309-1.8554-.003-3.1359-.0937-5.4063-.386-9.6323-1.2766-22.4549-2.25-35.375s-2.0081-25.9441-2.75-36.125c-.371-5.0904-.6813-9.4753-.8438-12.875-.0813-1.6999-.1195-3.1237-.125-4.4063s-.341-1.6023.4063-4.625c.7908-3.1992 1.2438-3.2639 1.8438-4.3438s1.3125-2.2599 2.1563-3.625c1.6874-2.7302 3.9073-6.1848 6.5313-10.1875 5.2479-8.0054 12.0466-18.1617 18.7188-28.2813s13.232-20.2219 17.875-27.875c.8939-1.4735 1.2644-2.2627 2-3.5313-1.7719-.5431-2.9732-.9799-5.1563-1.5938-9.2844-2.6107-21.781-5.7441-34.375-8.8125s-25.3028-6.0583-35.2188-8.5c-4.958-1.2208-9.1841-2.2911-12.4688-3.1875-1.6423-.4482-3.0596-.8588-4.2813-1.25s-1.6053-.1985-4.25-1.8438c-2.8-1.7418-2.7209-2.1892-3.5625-3.0938s-1.7439-1.9317-2.7813-3.1563c-2.0746-2.4491-4.6612-5.6418-7.6563-9.375-5.9901-7.4665-13.5649-17.0565-21.125-26.5313s-15.1268-18.8429-20.9688-25.625c-1.129-1.3107-1.7682-1.905-2.75-3zm161.2813,98.125c1.0108,1.134 1.4847.618 1.375.5625-.1019-.0515-.8278-.3422-1.375-.5625zm-305.0313,12.2188c-.1328-.008-.2089.0833-.1875.125 .0519.1011.4703.7533.7813,1.25-.09-.958-.3759-1.3625-.5938-1.375zm254.9063,169.3125c-.7534,1.2997-.1438,1.5895-.125,1.4688 .0173-.1113.0849-.8909.125-1.4688zm-189.1563,8.2188c-.6266.0788-.5612.5462-.4688.5313 .1116-.018.874-.2029 1.4375-.3438-.361-.0799-.7702-.2125-.9688-.1875z" fill="#fff" transform="matrix(.85818,0,0,.85818,85.74955,570.58456)"/>
<path d="m129.6563,160.5625c.6946-.6988.311-.3466-.25.375-.4403.5663-1.5824,2.2591-2.3125,3.2813 2.6415-1.6373 2.1593-3.2506 2.5625-3.6563zm-15.125,22.9375c-3.2861,5.1944-6.1765,9.593-9.6875,15.2813-6.7714,10.9704-13.5508,22.1263-19,30.9063-2.7246,4.39-5.1081,8.1746-7.125,11.25-1.0084,1.5377-1.9147,2.8727-2.9063,4.25s-.1204,1.673-5.8125,6.4688c-6.075,5.1184-6.1961,4.0733-7.7188,4.7813s-2.9733,1.3051-4.5938,1.9688c-3.2408,1.3273-7.1496,2.844-11.6875,4.5625-9.0758,3.4371-20.5321,7.6683-31.8125,11.9063-5.0046,1.8802-8.7627,3.4119-13.4375,5.2188 3.9248,4.7331 7.2372,8.8373 11.5625,13.9375 8.3382,9.832 16.8359,19.728 23.5,27.625 3.332,3.9485 6.168,7.3812 8.4688,10.25 1.1504,1.4344 2.1533,2.6941 3.1563,4.0625s1.5751.6723 4.375,7.5625c2.9886,7.3546 1.9533,7.1461 2.1563,8.8125s.3381,3.2229.4688,4.9688c.2614,3.4917.4858,7.654.7188,12.5 .466,9.6919.9219,21.9019 1.4688,33.9375 .2429,5.3455.5687,9.398.8438,14.4063 5.7161-2.2718 10.6543-4.1479 16.8438-6.6875 11.929-4.8945 23.9602-9.9128 33.5313-13.8125 4.7855-1.9498 8.9352-3.6352 12.375-4.9375 1.7199-.6512 3.2321-1.1874 4.8438-1.7188s1.1087-1.3097 8.5313-1.8438c7.918-.5697 7.3837.3656 9.0313.6875s3.1742.6786 4.875,1.0938c3.4016.8304 7.444,1.9117 12.125,3.1875 9.362,2.5517 21.1026,5.8635 32.7188,9.0625 5.1498,1.4182 9.0969,2.3723 13.9375,3.6563-.3938-6.1307-.6231-11.4006-1.125-18.0625-.9683-12.8517-2.0304-25.8216-2.7813-36.125-.3754-5.1517-.6682-9.6085-.8438-13.2813-.0878-1.8364-.149-3.4595-.1563-5.1563s-.8788-1.4349.9063-8.6563c1.905-7.7065 2.6223-6.9388 3.4375-8.4063s1.6108-2.792 2.5313-4.2813c1.8409-2.9785 4.1214-6.505 6.7813-10.5625 5.3198-8.115 12.118-18.2538 18.75-28.3125 2.9416-4.4615 5.0632-7.9164 7.7813-12.125-5.9652-1.5236-11.0553-2.9146-17.5625-4.5-12.5275-3.0522-25.2149-6.0602-35.25-8.5313-5.0176-1.2355-9.358-2.3442-12.9063-3.3125-1.7741-.4842-3.3214-.92-4.9375-1.4375s-1.6503.3993-7.9688-3.5313c-6.7453-4.1961-5.7624-4.6456-6.9063-5.875s-2.1808-2.414-3.3125-3.75c-2.2635-2.672-4.9014-5.9343-7.9375-9.7188-6.0722-7.5688-13.6104-17.1448-21.125-26.5625-3.3314-4.1751-5.9648-7.2715-9.125-11.1563zm-130.9063,75.125c-.4495-.8761-.2628-.4131.25.3438 .4111.6068 1.6997,2.2412 2.4688,3.2813-.7307-3.0863-2.4559-3.1126-2.7188-3.625zm280.0938,9.2188c2.3913,2.0402 3.8003,1.0535 4.3125,1.3125 .8786.4444.4537.1858-.4063-.125-.6844-.2474-2.685-.8019-3.9063-1.1875zm-228.9688,158.4375c-2.0869.1983-2.514,1.4528-3,1.5313-.9721.1569-.4722.0978.4063-.1563 .697-.2016 2.634-.9083 3.8438-1.3125-.4486-.0354-.9022-.0955-1.25-.0625zm172.7188,3.5313c-1.1849,2.8871.1505,3.9026.0625,4.4688-.1513.9738-.0299.4756 0-.4375 .0236-.7204-.0522-2.7665-.0625-4.0313z" transform="matrix(.85818,0,0,.85818,85.74955,570.58456)"/>
<path d="m197.307,708.0891c.068-.078.003-.005-.295.295-.0516.0519-.0781.12-.1073.2145 .1808-.2248.3471-.4463.4023-.5095zm-.4023.5095c-.0421.0523-.0618.0488-.1073.1073-.3779.486-1.358,1.9387-1.9845,2.8159 1.929-1.1957 1.9251-2.3832 2.0918-2.9232zm-12.8727,19.4699c-2.8201,4.4577-5.3005,8.2325-8.3136,13.114-5.811,9.4145-11.629,18.9883-16.3054,26.5231-2.3382,3.7674-4.3837,7.0152-6.1145,9.6545-.8654,1.3196-1.6432,2.4653-2.4941,3.6473s-.1034,1.4358-4.9882,5.5513c-5.2134,4.3925-5.3174,3.4956-6.6241,4.1032s-2.5517,1.12-3.9423,1.6895c-2.7812,1.139-6.1356,2.4406-10.03,3.9154-7.7887,2.9497-17.6202,6.5808-27.3008,10.2177-4.2948,1.6135-7.52,2.928-11.5318,4.4786 3.3682,4.0619 6.2108,7.584 9.9227,11.9609 7.1556,8.4376 14.4482,16.9301 20.1672,23.7072 2.8595,3.3885 5.2932,6.3344 7.2677,8.7963 .9872,1.231 1.8479,2.312 2.7086,3.4863s1.3517.5769 3.7545,6.49c2.5648,6.3115 1.6762,6.1326 1.8504,7.5627s.2901,2.7658.4023,4.2641c.2243,2.9965.4169,6.5685.6168,10.7272 .3999,8.3174.7912,18.7957 1.2605,29.1244 .2084,4.5874.488,8.0652.7241,12.3631 4.9055-1.9496 9.1433-3.5597 14.455-5.7391 6.7106-2.7534 13.2229-5.4474 19.3895-7.9918-5.5923-12.4909-8.6891-26.2758-8.6891-40.7635 0-44.0035 28.5896-81.5067 68.7347-95.9819-.8175-.4106-1.8794-.998-3.3791-1.9309-5.7887-3.601-4.9452-3.9867-5.9268-5.0418s-1.8715-2.0716-2.8427-3.2182c-1.9424-2.2931-4.2063-5.0927-6.8118-8.3404-5.211-6.4954-11.6802-14.7133-18.129-22.7954-2.8589-3.583-5.1189-6.2403-7.8309-9.5741zm-112.2068,64.6047c.0427.0665.03.0864.0804.1609 .3528.5207 1.4586,1.9234 2.1186,2.8159-.5487-2.3175-1.756-2.6417-2.1991-2.9768zm43.7403,143.7449c-1.5671.1489-2.0396.9801-2.4136,1.2336l.1877-.0536c.5981-.173 2.2605-.7795 3.2986-1.1264-.385-.0304-.7742-.082-1.0727-.0536zm-2.4136,1.2336c-.5742.1534-.89.1981-.1609.0804 .0521-.008.1075-.0442.1609-.0804z" fill="url(#linearGradient4113)"/>
</g>
<g transform="matrix(.47316,0,0,.47316,179.80597,53.85794)">
<path d="m233.7679,440.2276c-3.7499,3.3923-93.2077-24.333-98.2513-23.9702-5.401.3886-96.5914,41.0301-101.2872,38.3336-4.3851-2.5181-5.6607-96.1651-7.5643-100.8497-2.0385-5.0165-68.8704-79.1849-67.7569-84.4841 1.0398-4.9486 89.7092-35.1003 93.5763-38.3584 4.1411-3.489 54.0272-89.9691 59.4111-90.5477 5.0277-.5403 61.104,74.4719 65.3976,77.1429 4.5979,2.8602 102.261,23.581 104.475,28.5226 2.0675,4.6147-51.9448,81.1264-53.1583,86.0353-1.2994,5.2567 9.1736,104.5429 5.1579,108.1756z" fill="#f00" transform="matrix(.85818,0,0,.85818,261.678,-103.00452)"/>
<path d="m117.9375,148.9063c-.0772.0776-.5823.6712-.9375,1.0938 1.3523-.6063 1.0234-1.1801.9375-1.0938zm-5.0938,6.8125c-1.0646,1.5184-1.8344,2.5178-3.0938,4.4063-5.35,8.0226-12.1614,18.9401-18.9688,29.9688s-13.6156,22.1994-19,30.875c-2.6922,4.3378-5.008,8.0282-6.875,10.875-.9335,1.4234-1.7505,2.6464-2.5,3.6875s-.68,1.4927-3.0625,3.5c-2.5218,2.1247-2.9109,1.8853-4.0313,2.4063s-2.3897,1.048-3.875,1.6563c-2.9706,1.2166-6.8047,2.7109-11.2813,4.4063-8.9532,3.3906-20.4325,7.6114-31.7813,11.875s-22.5871,8.57-30.8438,12.0313c-1.6008.6711-2.3703,1.0903-3.7188,1.6875 1.1161,1.484 1.8411,2.5277 3.25,4.3125 5.9747,7.5688 14.2425,17.4595 22.625,27.3438s16.8838,19.7905 23.4688,27.5938c3.2925,3.9016 6.1202,7.2506 8.25,9.9063 1.0649,1.3278 1.9293,2.4655 2.6875,3.5s1.2342,1.1158 2.4063,4c1.2407,3.0531.8819,3.3675 1.0313,4.5938s.2865,2.5872.4063,4.1875c.2396,3.2006.4577,7.3133.6875,12.0938 .4597,9.561.9186,21.7665 1.4688,33.875s1.1955,24.1421 1.9375,33.0625c.1428,1.7172.287,2.5729.4375,4.0313 1.7598-.6043 2.9865-.9591 5.125-1.75 9.0458-3.3453 21.0077-8.1732 33-13.0938s24.0427-9.9279 33.5-13.7813c4.7287-1.9267 8.7845-3.5757 11.9688-4.7813 1.5921-.6028 2.9379-1.0984 4.1563-1.5s1.4556-.8077 4.5625-1.0313c3.2869-.2365 3.4751.2007 4.6875.4375s2.5347.5257 4.0938.9063c3.1181.7611 7.101,1.8352 11.7188,3.0938 9.2355,2.5172 21.001,5.8129 32.6875,9.0313s23.3177,6.3555 32.0313,8.4063c1.6763.3945 2.5359.5051 3.9688.8125-.0309-1.8554-.003-3.1359-.0937-5.4063-.386-9.6323-1.2766-22.4549-2.25-35.375s-2.0081-25.9441-2.75-36.125c-.371-5.0904-.6813-9.4753-.8438-12.875-.0813-1.6999-.1195-3.1237-.125-4.4063s-.341-1.6023.4063-4.625c.7908-3.1992 1.2438-3.2639 1.8438-4.3438s1.3125-2.2599 2.1563-3.625c1.6874-2.7302 3.9073-6.1848 6.5313-10.1875 5.2479-8.0054 12.0466-18.1617 18.7188-28.2813s13.232-20.2219 17.875-27.875c.8939-1.4735 1.2644-2.2627 2-3.5313-1.7719-.5431-2.9732-.9799-5.1563-1.5938-9.2844-2.6107-21.781-5.7441-34.375-8.8125s-25.3028-6.0583-35.2188-8.5c-4.958-1.2208-9.1841-2.2911-12.4688-3.1875-1.6423-.4482-3.0596-.8588-4.2813-1.25s-1.6053-.1985-4.25-1.8438c-2.8-1.7418-2.7209-2.1892-3.5625-3.0938s-1.7439-1.9317-2.7813-3.1563c-2.0746-2.4491-4.6612-5.6418-7.6563-9.375-5.9901-7.4665-13.5649-17.0565-21.125-26.5313s-15.1268-18.8429-20.9688-25.625c-1.129-1.3107-1.7682-1.905-2.75-3zm161.2813,98.125c1.0108,1.134 1.4847.618 1.375.5625-.1019-.0515-.8278-.3422-1.375-.5625zm-305.0313,12.2188c-.1328-.008-.2089.0833-.1875.125 .0519.1011.4703.7533.7813,1.25-.09-.958-.3759-1.3625-.5938-1.375zm254.9063,169.3125c-.7534,1.2997-.1438,1.5895-.125,1.4688 .0173-.1113.0849-.8909.125-1.4688zm-189.1563,8.2188c-.6266.0788-.5612.5462-.4688.5313 .1116-.018.874-.2029 1.4375-.3438-.361-.0799-.7702-.2125-.9688-.1875z" fill="#fff" transform="matrix(.85818,0,0,.85818,261.678,-103.00452)"/>
<path d="m129.6563,160.5625c.6946-.6988.311-.3466-.25.375-.4403.5663-1.5824,2.2591-2.3125,3.2813 2.6415-1.6373 2.1593-3.2506 2.5625-3.6563zm-15.125,22.9375c-3.2861,5.1944-6.1765,9.593-9.6875,15.2813-6.7714,10.9704-13.5508,22.1263-19,30.9063-2.7246,4.39-5.1081,8.1746-7.125,11.25-1.0084,1.5377-1.9147,2.8727-2.9063,4.25s-.1204,1.673-5.8125,6.4688c-6.075,5.1184-6.1961,4.0733-7.7188,4.7813s-2.9733,1.3051-4.5938,1.9688c-3.2408,1.3273-7.1496,2.844-11.6875,4.5625-9.0758,3.4371-20.5321,7.6683-31.8125,11.9063-5.0046,1.8802-8.7627,3.4119-13.4375,5.2188 3.9248,4.7331 7.2372,8.8373 11.5625,13.9375 8.3382,9.832 16.8359,19.728 23.5,27.625 3.332,3.9485 6.168,7.3812 8.4688,10.25 1.1504,1.4344 2.1533,2.6941 3.1563,4.0625s1.5751.6723 4.375,7.5625c2.9886,7.3546 1.9533,7.1461 2.1563,8.8125s.3381,3.2229.4688,4.9688c.2614,3.4917.4858,7.654.7188,12.5 .466,9.6919.9219,21.9019 1.4688,33.9375 .2429,5.3455.5687,9.398.8438,14.4063 5.7161-2.2718 10.6543-4.1479 16.8438-6.6875 11.929-4.8945 23.9602-9.9128 33.5313-13.8125 4.7855-1.9498 8.9352-3.6352 12.375-4.9375 1.7199-.6512 3.2321-1.1874 4.8438-1.7188s1.1087-1.3097 8.5313-1.8438c7.918-.5697 7.3837.3656 9.0313.6875s3.1742.6786 4.875,1.0938c3.4016.8304 7.444,1.9117 12.125,3.1875 9.362,2.5517 21.1026,5.8635 32.7188,9.0625 5.1498,1.4182 9.0969,2.3723 13.9375,3.6563-.3938-6.1307-.6231-11.4006-1.125-18.0625-.9683-12.8517-2.0304-25.8216-2.7813-36.125-.3754-5.1517-.6682-9.6085-.8438-13.2813-.0878-1.8364-.149-3.4595-.1563-5.1563s-.8788-1.4349.9063-8.6563c1.905-7.7065 2.6223-6.9388 3.4375-8.4063s1.6108-2.792 2.5313-4.2813c1.8409-2.9785 4.1214-6.505 6.7813-10.5625 5.3198-8.115 12.118-18.2538 18.75-28.3125 2.9416-4.4615 5.0632-7.9164 7.7813-12.125-5.9652-1.5236-11.0553-2.9146-17.5625-4.5-12.5275-3.0522-25.2149-6.0602-35.25-8.5313-5.0176-1.2355-9.358-2.3442-12.9063-3.3125-1.7741-.4842-3.3214-.92-4.9375-1.4375s-1.6503.3993-7.9688-3.5313c-6.7453-4.1961-5.7624-4.6456-6.9063-5.875s-2.1808-2.414-3.3125-3.75c-2.2635-2.672-4.9014-5.9343-7.9375-9.7188-6.0722-7.5688-13.6104-17.1448-21.125-26.5625-3.3314-4.1751-5.9648-7.2715-9.125-11.1563zm-130.9063,75.125c-.4495-.8761-.2628-.4131.25.3438 .4111.6068 1.6997,2.2412 2.4688,3.2813-.7307-3.0863-2.4559-3.1126-2.7188-3.625zm280.0938,9.2188c2.3913,2.0402 3.8003,1.0535 4.3125,1.3125 .8786.4444.4537.1858-.4063-.125-.6844-.2474-2.685-.8019-3.9063-1.1875zm-228.9688,158.4375c-2.0869.1983-2.514,1.4528-3,1.5313-.9721.1569-.4722.0978.4063-.1563 .697-.2016 2.634-.9083 3.8438-1.3125-.4486-.0354-.9022-.0955-1.25-.0625zm172.7188,3.5313c-1.1849,2.8871.1505,3.9026.0625,4.4688-.1513.9738-.0299.4756 0-.4375 .0236-.7204-.0522-2.7665-.0625-4.0313z" fill="#f00" transform="matrix(.85818,0,0,.85818,261.678,-103.00452)"/>
<path d="m373.2354,34.5c.068-.078.003-.005-.295.295-.0516.0519-.0781.12-.1073.2145 .1808-.2248.3471-.4463.4023-.5095zm-.4023.5095c-.0421.0523-.0618.0488-.1073.1073-.3779.486-1.358,1.9387-1.9845,2.8159 1.929-1.1957 1.9251-2.3832 2.0918-2.9232zm-12.8727,19.4699c-2.8201,4.4577-5.3005,8.2325-8.3136,13.114-5.811,9.4145-11.629,18.9883-16.3054,26.5231-2.3382,3.7674-4.3837,7.0152-6.1145,9.6545-.8654,1.3196-1.6432,2.4653-2.4941,3.6473s-.1034,1.4358-4.9882,5.5513c-5.2134,4.3925-5.3174,3.4956-6.6241,4.1032s-2.5517,1.12-3.9423,1.6895c-2.7812,1.139-6.1356,2.4406-10.03,3.9154-7.7887,2.9497-17.6202,6.5808-27.3008,10.2177-4.2948,1.6135-7.52,2.928-11.5318,4.4786 3.3682,4.0619 6.2108,7.584 9.9227,11.9609 7.1556,8.4376 14.4482,16.9301 20.1672,23.7072 2.8595,3.3885 5.2932,6.3344 7.2677,8.7963 .9872,1.231 1.8479,2.312 2.7086,3.4863s1.3517.5769 3.7545,6.49c2.5648,6.3115 1.6762,6.1326 1.8504,7.5627s.2901,2.7658.4023,4.2641c.2243,2.9965.4169,6.5685.6168,10.7272 .3999,8.3174.7912,18.7957 1.2605,29.1244 .2084,4.5874.488,8.0652.7241,12.3631 4.9055-1.9496 9.1433-3.5597 14.455-5.7391 6.7106-2.7534 13.2229-5.4474 19.3895-7.9918-5.5923-12.4909-8.6891-26.2758-8.6891-40.7635 0-44.0035 28.5896-81.5067 68.7347-95.9819-.8175-.4106-1.8794-.998-3.3791-1.9309-5.7887-3.601-4.9452-3.9867-5.9268-5.0418s-1.8715-2.0716-2.8427-3.2182c-1.9424-2.2931-4.2063-5.0927-6.8118-8.3404-5.211-6.4954-11.6802-14.7133-18.129-22.7954-2.8589-3.583-5.1189-6.2403-7.8309-9.5741zm-112.2068,64.6048c.0427.0665.03.0864.0804.1609 .3528.5207 1.4586,1.9234 2.1186,2.8159-.5487-2.3175-1.756-2.6417-2.1991-2.9768zm43.7403,143.7449c-1.5671.1489-2.0396.9801-2.4136,1.2336l.1877-.0536c.5981-.173 2.2605-.7795 3.2986-1.1264-.385-.0304-.7742-.082-1.0727-.0536zm-2.4136,1.2336c-.5742.1534-.89.1981-.1609.0804 .0521-.008.1075-.0442.1609-.0804z" fill="url(#linearGradient4111)"/>
</g>
<g transform="matrix(.46111,-.10611,.10611,.46111,96.89319,105.1861)">
<path d="m233.7679,440.2276c-3.7499,3.3923-93.2077-24.333-98.2513-23.9702-5.401.3886-96.5914,41.0301-101.2872,38.3336-4.3851-2.5181-5.6607-96.1651-7.5643-100.8497-2.0385-5.0165-68.8704-79.1849-67.7569-84.4841 1.0398-4.9486 89.7092-35.1003 93.5763-38.3584 4.1411-3.489 54.0272-89.9691 59.4111-90.5477 5.0277-.5403 61.104,74.4719 65.3976,77.1429 4.5979,2.8602 102.261,23.581 104.475,28.5226 2.0675,4.6147-51.9448,81.1264-53.1583,86.0353-1.2994,5.2567 9.1736,104.5429 5.1579,108.1756z" fill="#c8ab37" transform="matrix(.85818,0,0,.85818,57.83481,914.65538)"/>
<path d="m117.9375,148.9063c-.0772.0776-.5823.6712-.9375,1.0938 1.3523-.6063 1.0234-1.1801.9375-1.0938zm-5.0938,6.8125c-1.0646,1.5184-1.8344,2.5178-3.0938,4.4063-5.35,8.0226-12.1614,18.9401-18.9688,29.9688s-13.6156,22.1994-19,30.875c-2.6922,4.3378-5.008,8.0282-6.875,10.875-.9335,1.4234-1.7505,2.6464-2.5,3.6875s-.68,1.4927-3.0625,3.5c-2.5218,2.1247-2.9109,1.8853-4.0313,2.4063s-2.3897,1.048-3.875,1.6563c-2.9706,1.2166-6.8047,2.7109-11.2813,4.4063-8.9532,3.3906-20.4325,7.6114-31.7813,11.875s-22.5871,8.57-30.8438,12.0313c-1.6008.6711-2.3703,1.0903-3.7188,1.6875 1.1161,1.484 1.8411,2.5277 3.25,4.3125 5.9747,7.5688 14.2425,17.4595 22.625,27.3438s16.8838,19.7905 23.4688,27.5938c3.2925,3.9016 6.1202,7.2506 8.25,9.9063 1.0649,1.3278 1.9293,2.4655 2.6875,3.5s1.2342,1.1158 2.4063,4c1.2407,3.0531.8819,3.3675 1.0313,4.5938s.2865,2.5872.4063,4.1875c.2396,3.2006.4577,7.3133.6875,12.0938 .4597,9.561.9186,21.7665 1.4688,33.875s1.1955,24.1421 1.9375,33.0625c.1428,1.7172.287,2.5729.4375,4.0313 1.7598-.6043 2.9865-.9591 5.125-1.75 9.0458-3.3453 21.0077-8.1732 33-13.0938s24.0427-9.9279 33.5-13.7813c4.7287-1.9267 8.7845-3.5757 11.9688-4.7813 1.5921-.6028 2.9379-1.0984 4.1563-1.5s1.4556-.8077 4.5625-1.0313c3.2869-.2365 3.4751.2007 4.6875.4375s2.5347.5257 4.0938.9063c3.1181.7611 7.101,1.8352 11.7188,3.0938 9.2355,2.5172 21.001,5.8129 32.6875,9.0313s23.3177,6.3555 32.0313,8.4063c1.6763.3945 2.5359.5051 3.9688.8125-.0309-1.8554-.003-3.1359-.0937-5.4063-.386-9.6323-1.2766-22.4549-2.25-35.375s-2.0081-25.9441-2.75-36.125c-.371-5.0904-.6813-9.4753-.8438-12.875-.0813-1.6999-.1195-3.1237-.125-4.4063s-.341-1.6023.4063-4.625c.7908-3.1992 1.2438-3.2639 1.8438-4.3438s1.3125-2.2599 2.1563-3.625c1.6874-2.7302 3.9073-6.1848 6.5313-10.1875 5.2479-8.0054 12.0466-18.1617 18.7188-28.2813s13.232-20.2219 17.875-27.875c.8939-1.4735 1.2644-2.2627 2-3.5313-1.7719-.5431-2.9732-.9799-5.1563-1.5938-9.2844-2.6107-21.781-5.7441-34.375-8.8125s-25.3028-6.0583-35.2188-8.5c-4.958-1.2208-9.1841-2.2911-12.4688-3.1875-1.6423-.4482-3.0596-.8588-4.2813-1.25s-1.6053-.1985-4.25-1.8438c-2.8-1.7418-2.7209-2.1892-3.5625-3.0938s-1.7439-1.9317-2.7813-3.1563c-2.0746-2.4491-4.6612-5.6418-7.6563-9.375-5.9901-7.4665-13.5649-17.0565-21.125-26.5313s-15.1268-18.8429-20.9688-25.625c-1.129-1.3107-1.7682-1.905-2.75-3zm161.2813,98.125c1.0108,1.134 1.4847.618 1.375.5625-.1019-.0515-.8278-.3422-1.375-.5625zm-305.0313,12.2188c-.1328-.008-.2089.0833-.1875.125 .0519.1011.4703.7533.7813,1.25-.09-.958-.3759-1.3625-.5938-1.375zm254.9063,169.3125c-.7534,1.2997-.1438,1.5895-.125,1.4688 .0173-.1113.0849-.8909.125-1.4688zm-189.1563,8.2188c-.6266.0788-.5612.5462-.4688.5313 .1116-.018.874-.2029 1.4375-.3438-.361-.0799-.7702-.2125-.9688-.1875z" fill="#fff" transform="matrix(.85818,0,0,.85818,57.83481,914.65538)"/>
<path d="m129.6563,160.5625c.6946-.6988.311-.3466-.25.375-.4403.5663-1.5824,2.2591-2.3125,3.2813 2.6415-1.6373 2.1593-3.2506 2.5625-3.6563zm-15.125,22.9375c-3.2861,5.1944-6.1765,9.593-9.6875,15.2813-6.7714,10.9704-13.5508,22.1263-19,30.9063-2.7246,4.39-5.1081,8.1746-7.125,11.25-1.0084,1.5377-1.9147,2.8727-2.9063,4.25s-.1204,1.673-5.8125,6.4688c-6.075,5.1184-6.1961,4.0733-7.7188,4.7813s-2.9733,1.3051-4.5938,1.9688c-3.2408,1.3273-7.1496,2.844-11.6875,4.5625-9.0758,3.4371-20.5321,7.6683-31.8125,11.9063-5.0046,1.8802-8.7627,3.4119-13.4375,5.2188 3.9248,4.7331 7.2372,8.8373 11.5625,13.9375 8.3382,9.832 16.8359,19.728 23.5,27.625 3.332,3.9485 6.168,7.3812 8.4688,10.25 1.1504,1.4344 2.1533,2.6941 3.1563,4.0625s1.5751.6723 4.375,7.5625c2.9886,7.3546 1.9533,7.1461 2.1563,8.8125s.3381,3.2229.4688,4.9688c.2614,3.4917.4858,7.654.7188,12.5 .466,9.6919.9219,21.9019 1.4688,33.9375 .2429,5.3455.5687,9.398.8438,14.4063 5.7161-2.2718 10.6543-4.1479 16.8438-6.6875 11.929-4.8945 23.9602-9.9128 33.5313-13.8125 4.7855-1.9498 8.9352-3.6352 12.375-4.9375 1.7199-.6512 3.2321-1.1874 4.8438-1.7188s1.1087-1.3097 8.5313-1.8438c7.918-.5697 7.3837.3656 9.0313.6875s3.1742.6786 4.875,1.0938c3.4016.8304 7.444,1.9117 12.125,3.1875 9.362,2.5517 21.1026,5.8635 32.7188,9.0625 5.1498,1.4182 9.0969,2.3723 13.9375,3.6563-.3938-6.1307-.6231-11.4006-1.125-18.0625-.9683-12.8517-2.0304-25.8216-2.7813-36.125-.3754-5.1517-.6682-9.6085-.8438-13.2813-.0878-1.8364-.149-3.4595-.1563-5.1563s-.8788-1.4349.9063-8.6563c1.905-7.7065 2.6223-6.9388 3.4375-8.4063s1.6108-2.792 2.5313-4.2813c1.8409-2.9785 4.1214-6.505 6.7813-10.5625 5.3198-8.115 12.118-18.2538 18.75-28.3125 2.9416-4.4615 5.0632-7.9164 7.7813-12.125-5.9652-1.5236-11.0553-2.9146-17.5625-4.5-12.5275-3.0522-25.2149-6.0602-35.25-8.5313-5.0176-1.2355-9.358-2.3442-12.9063-3.3125-1.7741-.4842-3.3214-.92-4.9375-1.4375s-1.6503.3993-7.9688-3.5313c-6.7453-4.1961-5.7624-4.6456-6.9063-5.875s-2.1808-2.414-3.3125-3.75c-2.2635-2.672-4.9014-5.9343-7.9375-9.7188-6.0722-7.5688-13.6104-17.1448-21.125-26.5625-3.3314-4.1751-5.9648-7.2715-9.125-11.1563zm-130.9063,75.125c-.4495-.8761-.2628-.4131.25.3438 .4111.6068 1.6997,2.2412 2.4688,3.2813-.7307-3.0863-2.4559-3.1126-2.7188-3.625zm280.0938,9.2188c2.3913,2.0402 3.8003,1.0535 4.3125,1.3125 .8786.4444.4537.1858-.4063-.125-.6844-.2474-2.685-.8019-3.9063-1.1875zm-228.9688,158.4375c-2.0869.1983-2.514,1.4528-3,1.5313-.9721.1569-.4722.0978.4063-.1563 .697-.2016 2.634-.9083 3.8438-1.3125-.4486-.0354-.9022-.0955-1.25-.0625zm172.7188,3.5313c-1.1849,2.8871.1505,3.9026.0625,4.4688-.1513.9738-.0299.4756 0-.4375 .0236-.7204-.0522-2.7665-.0625-4.0313z" fill="#c8ab37" transform="matrix(.85818,0,0,.85818,57.83481,914.65538)"/>
<path d="m169.3922,1052.1599c.068-.078.003-.01-.295.295-.0516.052-.0781.12-.1073.2145 .1808-.2248.3471-.4462.4023-.5095zm-.4023.5095c-.0421.052-.0618.049-.1073.1073-.3779.486-1.358,1.9387-1.9845,2.8159 1.929-1.1956 1.9251-2.3832 2.0918-2.9232zm-12.8727,19.47c-2.8201,4.4577-5.3005,8.2325-8.3136,13.114-5.811,9.4145-11.629,18.9883-16.3054,26.5231-2.3382,3.7674-4.3837,7.0153-6.1145,9.6545-.8654,1.3197-1.6432,2.4653-2.4941,3.6473s-.1034,1.4357-4.9882,5.5513c-5.2134,4.3925-5.3174,3.4956-6.6241,4.1032s-2.5517,1.12-3.9423,1.6895c-2.7812,1.1391-6.1356,2.4407-10.03,3.9155-7.7887,2.9496-17.6202,6.5808-27.3008,10.2177-4.2948,1.6135-7.52,2.928-11.5318,4.4786 3.3682,4.0618 6.2108,7.5839 9.9227,11.9608 7.1556,8.4376 14.4482,16.9302 20.1672,23.7072 2.8595,3.3886 5.2932,6.3344 7.2677,8.7964 .9872,1.2309 1.8479,2.312 2.7086,3.4863s1.3517.5769 3.7545,6.49c2.5648,6.3115 1.6762,6.1326 1.8504,7.5627s.2901,2.7658.4023,4.2641c.2243,2.9964.4169,6.5685.6168,10.7272 .3999,8.3174.7912,18.7957 1.2605,29.1244 .2084,4.5874.488,8.0652.7241,12.3632 4.9055-1.9496 9.1433-3.5597 14.4549-5.7391 6.7106-2.7534 13.2229-5.4474 19.3895-7.9918-5.5923-12.4909-8.6891-26.2758-8.6891-40.7635 0-44.0034 28.5896-81.5067 68.7347-95.9819-.8175-.4105-1.8794-.9979-3.3791-1.9309-5.7887-3.601-4.9452-3.9867-5.9268-5.0418s-1.8715-2.0716-2.8427-3.2182c-1.9424-2.2931-4.2063-5.0927-6.8118-8.3404-5.211-6.4954-11.6802-14.7133-18.129-22.7954-2.8589-3.583-5.1189-6.2403-7.8309-9.574zm-112.2068,64.6048c.0427.066.03.086.0804.1609 .3528.5207 1.4586,1.9233 2.1186,2.8159-.5487-2.3175-1.756-2.6417-2.1991-2.9768zm43.7403,143.7449c-1.5671.1488-2.0396.9801-2.4136,1.2336l.1877-.054c.5981-.173 2.2605-.7795 3.2986-1.1264-.385-.03-.7742-.082-1.0727-.054zm-2.4136,1.2336c-.5742.1534-.89.1981-.1609.08 .0521-.01.1075-.044.1609-.08z" fill="url(#linearGradient4109)"/>
</g>
<g transform="matrix(.47316,0,0,.47316,331.36901,8.12295)">
<path d="m233.7679,440.2276c-3.7499,3.3923-93.2077-24.333-98.2513-23.9702-5.401.3886-96.5914,41.0301-101.2872,38.3336-4.3851-2.5181-5.6607-96.1651-7.5643-100.8497-2.0385-5.0165-68.8704-79.1849-67.7569-84.4841 1.0398-4.9486 89.7092-35.1003 93.5763-38.3584 4.1411-3.489 54.0272-89.9691 59.4111-90.5477 5.0277-.5403 61.104,74.4719 65.3976,77.1429 4.5979,2.8602 102.261,23.581 104.475,28.5226 2.0675,4.6147-51.9448,81.1264-53.1583,86.0353-1.2994,5.2567 9.1736,104.5429 5.1579,108.1756z" fill="#06f" transform="matrix(.85818,0,0,.85818,378.38212,919.32354)"/>
<path d="m117.9375,148.9063c-.0772.0776-.5823.6712-.9375,1.0938 1.3523-.6063 1.0234-1.1801.9375-1.0938zm-5.0938,6.8125c-1.0646,1.5184-1.8344,2.5178-3.0938,4.4063-5.35,8.0226-12.1614,18.9401-18.9688,29.9688s-13.6156,22.1994-19,30.875c-2.6922,4.3378-5.008,8.0282-6.875,10.875-.9335,1.4234-1.7505,2.6464-2.5,3.6875s-.68,1.4927-3.0625,3.5c-2.5218,2.1247-2.9109,1.8853-4.0313,2.4063s-2.3897,1.048-3.875,1.6563c-2.9706,1.2166-6.8047,2.7109-11.2813,4.4063-8.9532,3.3906-20.4325,7.6114-31.7813,11.875s-22.5871,8.57-30.8438,12.0313c-1.6008.6711-2.3703,1.0903-3.7188,1.6875 1.1161,1.484 1.8411,2.5277 3.25,4.3125 5.9747,7.5688 14.2425,17.4595 22.625,27.3438s16.8838,19.7905 23.4688,27.5938c3.2925,3.9016 6.1202,7.2506 8.25,9.9063 1.0649,1.3278 1.9293,2.4655 2.6875,3.5s1.2342,1.1158 2.4063,4c1.2407,3.0531.8819,3.3675 1.0313,4.5938s.2865,2.5872.4063,4.1875c.2396,3.2006.4577,7.3133.6875,12.0938 .4597,9.561.9186,21.7665 1.4688,33.875s1.1955,24.1421 1.9375,33.0625c.1428,1.7172.287,2.5729.4375,4.0313 1.7598-.6043 2.9865-.9591 5.125-1.75 9.0458-3.3453 21.0077-8.1732 33-13.0938s24.0427-9.9279 33.5-13.7813c4.7287-1.9267 8.7845-3.5757 11.9688-4.7813 1.5921-.6028 2.9379-1.0984 4.1563-1.5s1.4556-.8077 4.5625-1.0313c3.2869-.2365 3.4751.2007 4.6875.4375s2.5347.5257 4.0938.9063c3.1181.7611 7.101,1.8352 11.7188,3.0938 9.2355,2.5172 21.001,5.8129 32.6875,9.0313s23.3177,6.3555 32.0313,8.4063c1.6763.3945 2.5359.5051 3.9688.8125-.0309-1.8554-.003-3.1359-.0937-5.4063-.386-9.6323-1.2766-22.4549-2.25-35.375s-2.0081-25.9441-2.75-36.125c-.371-5.0904-.6813-9.4753-.8438-12.875-.0813-1.6999-.1195-3.1237-.125-4.4063s-.341-1.6023.4063-4.625c.7908-3.1992 1.2438-3.2639 1.8438-4.3438s1.3125-2.2599 2.1563-3.625c1.6874-2.7302 3.9073-6.1848 6.5313-10.1875 5.2479-8.0054 12.0466-18.1617 18.7188-28.2813s13.232-20.2219 17.875-27.875c.8939-1.4735 1.2644-2.2627 2-3.5313-1.7719-.5431-2.9732-.9799-5.1563-1.5938-9.2844-2.6107-21.781-5.7441-34.375-8.8125s-25.3028-6.0583-35.2188-8.5c-4.958-1.2208-9.1841-2.2911-12.4688-3.1875-1.6423-.4482-3.0596-.8588-4.2813-1.25s-1.6053-.1985-4.25-1.8438c-2.8-1.7418-2.7209-2.1892-3.5625-3.0938s-1.7439-1.9317-2.7813-3.1563c-2.0746-2.4491-4.6612-5.6418-7.6563-9.375-5.9901-7.4665-13.5649-17.0565-21.125-26.5313s-15.1268-18.8429-20.9688-25.625c-1.129-1.3107-1.7682-1.905-2.75-3zm161.2813,98.125c1.0108,1.134 1.4847.618 1.375.5625-.1019-.0515-.8278-.3422-1.375-.5625zm-305.0313,12.2188c-.1328-.008-.2089.0833-.1875.125 .0519.1011.4703.7533.7813,1.25-.09-.958-.3759-1.3625-.5938-1.375zm254.9063,169.3125c-.7534,1.2997-.1438,1.5895-.125,1.4688 .0173-.1113.0849-.8909.125-1.4688zm-189.1563,8.2188c-.6266.0788-.5612.5462-.4688.5313 .1116-.018.874-.2029 1.4375-.3438-.361-.0799-.7702-.2125-.9688-.1875z" fill="#fff" transform="matrix(.85818,0,0,.85818,378.38212,919.32354)"/>
<path d="m129.6563,160.5625c.6946-.6988.311-.3466-.25.375-.4403.5663-1.5824,2.2591-2.3125,3.2813 2.6415-1.6373 2.1593-3.2506 2.5625-3.6563zm-15.125,22.9375c-3.2861,5.1944-6.1765,9.593-9.6875,15.2813-6.7714,10.9704-13.5508,22.1263-19,30.9063-2.7246,4.39-5.1081,8.1746-7.125,11.25-1.0084,1.5377-1.9147,2.8727-2.9063,4.25s-.1204,1.673-5.8125,6.4688c-6.075,5.1184-6.1961,4.0733-7.7188,4.7813s-2.9733,1.3051-4.5938,1.9688c-3.2408,1.3273-7.1496,2.844-11.6875,4.5625-9.0758,3.4371-20.5321,7.6683-31.8125,11.9063-5.0046,1.8802-8.7627,3.4119-13.4375,5.2188 3.9248,4.7331 7.2372,8.8373 11.5625,13.9375 8.3382,9.832 16.8359,19.728 23.5,27.625 3.332,3.9485 6.168,7.3812 8.4688,10.25 1.1504,1.4344 2.1533,2.6941 3.1563,4.0625s1.5751.6723 4.375,7.5625c2.9886,7.3546 1.9533,7.1461 2.1563,8.8125s.3381,3.2229.4688,4.9688c.2614,3.4917.4858,7.654.7188,12.5 .466,9.6919.9219,21.9019 1.4688,33.9375 .2429,5.3455.5687,9.398.8438,14.4063 5.7161-2.2718 10.6543-4.1479 16.8438-6.6875 11.929-4.8945 23.9602-9.9128 33.5313-13.8125 4.7855-1.9498 8.9352-3.6352 12.375-4.9375 1.7199-.6512 3.2321-1.1874 4.8438-1.7188s1.1087-1.3097 8.5313-1.8438c7.918-.5697 7.3837.3656 9.0313.6875s3.1742.6786 4.875,1.0938c3.4016.8304 7.444,1.9117 12.125,3.1875 9.362,2.5517 21.1026,5.8635 32.7188,9.0625 5.1498,1.4182 9.0969,2.3723 13.9375,3.6563-.3938-6.1307-.6231-11.4006-1.125-18.0625-.9683-12.8517-2.0304-25.8216-2.7813-36.125-.3754-5.1517-.6682-9.6085-.8438-13.2813-.0878-1.8364-.149-3.4595-.1563-5.1563s-.8788-1.4349.9063-8.6563c1.905-7.7065 2.6223-6.9388 3.4375-8.4063s1.6108-2.792 2.5313-4.2813c1.8409-2.9785 4.1214-6.505 6.7813-10.5625 5.3198-8.115 12.118-18.2538 18.75-28.3125 2.9416-4.4615 5.0632-7.9164 7.7813-12.125-5.9652-1.5236-11.0553-2.9146-17.5625-4.5-12.5275-3.0522-25.2149-6.0602-35.25-8.5313-5.0176-1.2355-9.358-2.3442-12.9063-3.3125-1.7741-.4842-3.3214-.92-4.9375-1.4375s-1.6503.3993-7.9688-3.5313c-6.7453-4.1961-5.7624-4.6456-6.9063-5.875s-2.1808-2.414-3.3125-3.75c-2.2635-2.672-4.9014-5.9343-7.9375-9.7188-6.0722-7.5688-13.6104-17.1448-21.125-26.5625-3.3314-4.1751-5.9648-7.2715-9.125-11.1563zm-130.9063,75.125c-.4495-.8761-.2628-.4131.25.3438 .4111.6068 1.6997,2.2412 2.4688,3.2813-.7307-3.0863-2.4559-3.1126-2.7188-3.625zm280.0938,9.2188c2.3913,2.0402 3.8003,1.0535 4.3125,1.3125 .8786.4444.4537.1858-.4063-.125-.6844-.2474-2.685-.8019-3.9063-1.1875zm-228.9688,158.4375c-2.0869.1983-2.514,1.4528-3,1.5313-.9721.1569-.4722.0978.4063-.1563 .697-.2016 2.634-.9083 3.8438-1.3125-.4486-.0354-.9022-.0955-1.25-.0625zm172.7188,3.5313c-1.1849,2.8871.1505,3.9026.0625,4.4688-.1513.9738-.0299.4756 0-.4375 .0236-.7204-.0522-2.7665-.0625-4.0313z" fill="#06f" transform="matrix(.85818,0,0,.85818,378.38212,919.32354)"/>
<path d="m489.9395,1056.8281c.068-.078.003-.01-.295.295-.0516.052-.0781.12-.1073.2145 .1808-.2248.3471-.4462.4023-.5095zm-.4023.5095c-.0421.052-.0618.049-.1073.1073-.3779.486-1.358,1.9387-1.9845,2.8159 1.929-1.1956 1.9251-2.3832 2.0918-2.9232zm-12.8727,19.47c-2.8201,4.4577-5.3005,8.2325-8.3136,13.114-5.811,9.4145-11.629,18.9883-16.3054,26.5231-2.3382,3.7674-4.3837,7.0153-6.1145,9.6545-.8654,1.3197-1.6432,2.4653-2.4941,3.6473s-.1034,1.4357-4.9882,5.5513c-5.2134,4.3925-5.3174,3.4956-6.6241,4.1032s-2.5517,1.12-3.9423,1.6895c-2.7812,1.1391-6.1356,2.4407-10.03,3.9155-7.7887,2.9496-17.6202,6.5808-27.3008,10.2177-4.2948,1.6135-7.52,2.928-11.5318,4.4786 3.3682,4.0618 6.2108,7.5839 9.9227,11.9608 7.1556,8.4376 14.4482,16.9302 20.1672,23.7072 2.8595,3.3886 5.2932,6.3344 7.2677,8.7964 .9872,1.2309 1.8479,2.312 2.7086,3.4863s1.3517.5769 3.7545,6.49c2.5648,6.3115 1.6762,6.1326 1.8504,7.5627s.2901,2.7658.4023,4.2641c.2243,2.9964.4169,6.5685.6168,10.7272 .3999,8.3174.7912,18.7957 1.2605,29.1244 .2084,4.5874.488,8.0652.7241,12.3632 4.9055-1.9496 9.1433-3.5597 14.4549-5.7391 6.7106-2.7534 13.2229-5.4474 19.3895-7.9918-5.5923-12.4909-8.6891-26.2758-8.6891-40.7635 0-44.0034 28.5896-81.5067 68.7347-95.9819-.8175-.4105-1.8794-.9979-3.3791-1.9309-5.7887-3.601-4.9452-3.9867-5.9268-5.0418s-1.8715-2.0716-2.8427-3.2182c-1.9424-2.2931-4.2063-5.0927-6.8118-8.3404-5.211-6.4954-11.6802-14.7133-18.129-22.7954-2.8589-3.583-5.1189-6.2403-7.8309-9.574zm-112.2068,64.6048c.0427.066.03.086.0804.1609 .3528.5207 1.4586,1.9233 2.1186,2.8159-.5487-2.3175-1.756-2.6417-2.1991-2.9768zm43.7403,143.7449c-1.5671.1488-2.0396.9801-2.4136,1.2336l.1877-.054c.5981-.173 2.2605-.7795 3.2986-1.1264-.385-.03-.7742-.082-1.0727-.054zm-2.4136,1.2336c-.5742.1534-.89.1981-.1609.08 .0521-.01.1075-.044.1609-.08z" fill="url(#linearGradient4107)"/>
</g>
<g transform="matrix(.36242,-.30419,.30419,.36242,509.52092,271.36733)">
<path d="m233.7679,440.2276c-3.7499,3.3923-93.2077-24.333-98.2513-23.9702-5.401.3886-96.5914,41.0301-101.2872,38.3336-4.3851-2.5181-5.6607-96.1651-7.5643-100.8497-2.0385-5.0165-68.8704-79.1849-67.7569-84.4841 1.0398-4.9486 89.7092-35.1003 93.5763-38.3584 4.1411-3.489 54.0272-89.9691 59.4111-90.5477 5.0277-.5403 61.104,74.4719 65.3976,77.1429 4.5979,2.8602 102.261,23.581 104.475,28.5226 2.0675,4.6147-51.9448,81.1264-53.1583,86.0353-1.2994,5.2567 9.1736,104.5429 5.1579,108.1756z" fill="#008000" transform="matrix(.85818,0,0,.85818,-115.15145,153.69601)"/>
<path d="m117.9375,148.9063c-.0772.0776-.5823.6712-.9375,1.0938 1.3523-.6063 1.0234-1.1801.9375-1.0938zm-5.0938,6.8125c-1.0646,1.5184-1.8344,2.5178-3.0938,4.4063-5.35,8.0226-12.1614,18.9401-18.9688,29.9688s-13.6156,22.1994-19,30.875c-2.6922,4.3378-5.008,8.0282-6.875,10.875-.9335,1.4234-1.7505,2.6464-2.5,3.6875s-.68,1.4927-3.0625,3.5c-2.5218,2.1247-2.9109,1.8853-4.0313,2.4063s-2.3897,1.048-3.875,1.6563c-2.9706,1.2166-6.8047,2.7109-11.2813,4.4063-8.9532,3.3906-20.4325,7.6114-31.7813,11.875s-22.5871,8.57-30.8438,12.0313c-1.6008.6711-2.3703,1.0903-3.7188,1.6875 1.1161,1.484 1.8411,2.5277 3.25,4.3125 5.9747,7.5688 14.2425,17.4595 22.625,27.3438s16.8838,19.7905 23.4688,27.5938c3.2925,3.9016 6.1202,7.2506 8.25,9.9063 1.0649,1.3278 1.9293,2.4655 2.6875,3.5s1.2342,1.1158 2.4063,4c1.2407,3.0531.8819,3.3675 1.0313,4.5938s.2865,2.5872.4063,4.1875c.2396,3.2006.4577,7.3133.6875,12.0938 .4597,9.561.9186,21.7665 1.4688,33.875s1.1955,24.1421 1.9375,33.0625c.1428,1.7172.287,2.5729.4375,4.0313 1.7598-.6043 2.9865-.9591 5.125-1.75 9.0458-3.3453 21.0077-8.1732 33-13.0938s24.0427-9.9279 33.5-13.7813c4.7287-1.9267 8.7845-3.5757 11.9688-4.7813 1.5921-.6028 2.9379-1.0984 4.1563-1.5s1.4556-.8077 4.5625-1.0313c3.2869-.2365 3.4751.2007 4.6875.4375s2.5347.5257 4.0938.9063c3.1181.7611 7.101,1.8352 11.7188,3.0938 9.2355,2.5172 21.001,5.8129 32.6875,9.0313s23.3177,6.3555 32.0313,8.4063c1.6763.3945 2.5359.5051 3.9688.8125-.0309-1.8554-.003-3.1359-.0937-5.4063-.386-9.6323-1.2766-22.4549-2.25-35.375s-2.0081-25.9441-2.75-36.125c-.371-5.0904-.6813-9.4753-.8438-12.875-.0813-1.6999-.1195-3.1237-.125-4.4063s-.341-1.6023.4063-4.625c.7908-3.1992 1.2438-3.2639 1.8438-4.3438s1.3125-2.2599 2.1563-3.625c1.6874-2.7302 3.9073-6.1848 6.5313-10.1875 5.2479-8.0054 12.0466-18.1617 18.7188-28.2813s13.232-20.2219 17.875-27.875c.8939-1.4735 1.2644-2.2627 2-3.5313-1.7719-.5431-2.9732-.9799-5.1563-1.5938-9.2844-2.6107-21.781-5.7441-34.375-8.8125s-25.3028-6.0583-35.2188-8.5c-4.958-1.2208-9.1841-2.2911-12.4688-3.1875-1.6423-.4482-3.0596-.8588-4.2813-1.25s-1.6053-.1985-4.25-1.8438c-2.8-1.7418-2.7209-2.1892-3.5625-3.0938s-1.7439-1.9317-2.7813-3.1563c-2.0746-2.4491-4.6612-5.6418-7.6563-9.375-5.9901-7.4665-13.5649-17.0565-21.125-26.5313s-15.1268-18.8429-20.9688-25.625c-1.129-1.3107-1.7682-1.905-2.75-3zm161.2813,98.125c1.0108,1.134 1.4847.618 1.375.5625-.1019-.0515-.8278-.3422-1.375-.5625zm-305.0313,12.2188c-.1328-.008-.2089.0833-.1875.125 .0519.1011.4703.7533.7813,1.25-.09-.958-.3759-1.3625-.5938-1.375zm254.9063,169.3125c-.7534,1.2997-.1438,1.5895-.125,1.4688 .0173-.1113.0849-.8909.125-1.4688zm-189.1563,8.2188c-.6266.0788-.5612.5462-.4688.5313 .1116-.018.874-.2029 1.4375-.3438-.361-.0799-.7702-.2125-.9688-.1875z" fill="#fff" transform="matrix(.85818,0,0,.85818,-115.15145,153.69601)"/>
<path d="m129.6563,160.5625c.6946-.6988.311-.3466-.25.375-.4403.5663-1.5824,2.2591-2.3125,3.2813 2.6415-1.6373 2.1593-3.2506 2.5625-3.6563zm-15.125,22.9375c-3.2861,5.1944-6.1765,9.593-9.6875,15.2813-6.7714,10.9704-13.5508,22.1263-19,30.9063-2.7246,4.39-5.1081,8.1746-7.125,11.25-1.0084,1.5377-1.9147,2.8727-2.9063,4.25s-.1204,1.673-5.8125,6.4688c-6.075,5.1184-6.1961,4.0733-7.7188,4.7813s-2.9733,1.3051-4.5938,1.9688c-3.2408,1.3273-7.1496,2.844-11.6875,4.5625-9.0758,3.4371-20.5321,7.6683-31.8125,11.9063-5.0046,1.8802-8.7627,3.4119-13.4375,5.2188 3.9248,4.7331 7.2372,8.8373 11.5625,13.9375 8.3382,9.832 16.8359,19.728 23.5,27.625 3.332,3.9485 6.168,7.3812 8.4688,10.25 1.1504,1.4344 2.1533,2.6941 3.1563,4.0625s1.5751.6723 4.375,7.5625c2.9886,7.3546 1.9533,7.1461 2.1563,8.8125s.3381,3.2229.4688,4.9688c.2614,3.4917.4858,7.654.7188,12.5 .466,9.6919.9219,21.9019 1.4688,33.9375 .2429,5.3455.5687,9.398.8438,14.4063 5.7161-2.2718 10.6543-4.1479 16.8438-6.6875 11.929-4.8945 23.9602-9.9128 33.5313-13.8125 4.7855-1.9498 8.9352-3.6352 12.375-4.9375 1.7199-.6512 3.2321-1.1874 4.8438-1.7188s1.1087-1.3097 8.5313-1.8438c7.918-.5697 7.3837.3656 9.0313.6875s3.1742.6786 4.875,1.0938c3.4016.8304 7.444,1.9117 12.125,3.1875 9.362,2.5517 21.1026,5.8635 32.7188,9.0625 5.1498,1.4182 9.0969,2.3723 13.9375,3.6563-.3938-6.1307-.6231-11.4006-1.125-18.0625-.9683-12.8517-2.0304-25.8216-2.7813-36.125-.3754-5.1517-.6682-9.6085-.8438-13.2813-.0878-1.8364-.149-3.4595-.1563-5.1563s-.8788-1.4349.9063-8.6563c1.905-7.7065 2.6223-6.9388 3.4375-8.4063s1.6108-2.792 2.5313-4.2813c1.8409-2.9785 4.1214-6.505 6.7813-10.5625 5.3198-8.115 12.118-18.2538 18.75-28.3125 2.9416-4.4615 5.0632-7.9164 7.7813-12.125-5.9652-1.5236-11.0553-2.9146-17.5625-4.5-12.5275-3.0522-25.2149-6.0602-35.25-8.5313-5.0176-1.2355-9.358-2.3442-12.9063-3.3125-1.7741-.4842-3.3214-.92-4.9375-1.4375s-1.6503.3993-7.9688-3.5313c-6.7453-4.1961-5.7624-4.6456-6.9063-5.875s-2.1808-2.414-3.3125-3.75c-2.2635-2.672-4.9014-5.9343-7.9375-9.7188-6.0722-7.5688-13.6104-17.1448-21.125-26.5625-3.3314-4.1751-5.9648-7.2715-9.125-11.1563zm-130.9063,75.125c-.4495-.8761-.2628-.4131.25.3438 .4111.6068 1.6997,2.2412 2.4688,3.2813-.7307-3.0863-2.4559-3.1126-2.7188-3.625zm280.0938,9.2188c2.3913,2.0402 3.8003,1.0535 4.3125,1.3125 .8786.4444.4537.1858-.4063-.125-.6844-.2474-2.685-.8019-3.9063-1.1875zm-228.9688,158.4375c-2.0869.1983-2.514,1.4528-3,1.5313-.9721.1569-.4722.0978.4063-.1563 .697-.2016 2.634-.9083 3.8438-1.3125-.4486-.0354-.9022-.0955-1.25-.0625zm172.7188,3.5313c-1.1849,2.8871.1505,3.9026.0625,4.4688-.1513.9738-.0299.4756 0-.4375 .0236-.7204-.0522-2.7665-.0625-4.0313z" fill="#008000" transform="matrix(.85818,0,0,.85818,-115.15145,153.69601)"/>
<path d="m-3.5941,291.2005c.068-.078.003-.005-.295.295-.0516.0519-.0781.12-.1073.2145 .1808-.2248.3471-.4463.4023-.5095zm-.4023.5095c-.0421.0523-.0618.0488-.1073.1073-.3779.486-1.358,1.9387-1.9845,2.8159 1.929-1.1957 1.9251-2.3832 2.0918-2.9232zm-12.8727,19.4699c-2.8201,4.4577-5.3005,8.2325-8.3136,13.114-5.811,9.4145-11.629,18.9883-16.3054,26.5231-2.3382,3.7674-4.3837,7.0152-6.1145,9.6545-.8654,1.3196-1.6432,2.4653-2.4941,3.6473s-.1034,1.4358-4.9882,5.5513c-5.2134,4.3925-5.3174,3.4956-6.6241,4.1032s-2.5517,1.12-3.9423,1.6895c-2.7812,1.139-6.1356,2.4406-10.03,3.9154-7.7887,2.9497-17.6202,6.5808-27.3008,10.2177-4.2948,1.6135-7.52,2.928-11.5318,4.4786 3.3682,4.0619 6.2108,7.584 9.9227,11.9609 7.1556,8.4376 14.4482,16.9301 20.1672,23.7072 2.8595,3.3885 5.2932,6.3344 7.2677,8.7963 .9872,1.231 1.8479,2.312 2.7086,3.4863s1.3517.5769 3.7545,6.49c2.5648,6.3115 1.6762,6.1326 1.8504,7.5627s.2901,2.7658.4023,4.2641c.2243,2.9965.4169,6.5685.6168,10.7272 .3999,8.3174.7912,18.7957 1.2605,29.1244 .2084,4.5874.488,8.0652.7241,12.3631 4.9055-1.9496 9.1433-3.5597 14.455-5.7391 6.7106-2.7534 13.2229-5.4474 19.3895-7.9918-5.5923-12.4909-8.6891-26.2758-8.6891-40.7635 0-44.0035 28.5896-81.5067 68.7347-95.9819-.8175-.4106-1.8794-.998-3.3791-1.9309-5.7887-3.601-4.9452-3.9867-5.9268-5.0418s-1.8715-2.0716-2.8427-3.2182c-1.9424-2.2931-4.2063-5.0927-6.8118-8.3404-5.211-6.4954-11.6802-14.7133-18.129-22.7954-2.8589-3.583-5.1189-6.2403-7.8309-9.5741zm-112.2068,64.6047c.0427.0665.03.0864.0804.1609 .3528.5207 1.4586,1.9234 2.1186,2.8159-.5487-2.3175-1.756-2.6417-2.1991-2.9768zm43.7403,143.7449c-1.5671.1489-2.0396.9801-2.4136,1.2336l.1877-.0536c.5981-.173 2.2605-.7795 3.2986-1.1264-.385-.0304-.7742-.082-1.0727-.0536zm-2.4136,1.2336c-.5742.1534-.89.1981-.1609.0804 .0521-.008.1075-.0442.1609-.0804z" fill="url(#linearGradient4105)"/>
</g>
<path d="m233.7679,440.2276c-3.7499,3.3923-93.2077-24.333-98.2513-23.9702-5.401.3886-96.5914,41.0301-101.2872,38.3336-4.3851-2.5181-5.6607-96.1651-7.5643-100.8497-2.0385-5.0165-68.8704-79.1849-67.7569-84.4841 1.0398-4.9486 89.7092-35.1003 93.5763-38.3584 4.1411-3.489 54.0272-89.9691 59.4111-90.5477 5.0277-.5403 61.104,74.4719 65.3976,77.1429 4.5979,2.8602 102.261,23.581 104.475,28.5226 2.0675,4.6147-51.9448,81.1264-53.1583,86.0353-1.2994,5.2567 9.1736,104.5429 5.1579,108.1756z" fill="#803300" transform="matrix(.39122,-.10876,.10876,.39122,29.24648,304.93511)"/>
<path d="m117.9375,148.9063c-.0772.0776-.5823.6712-.9375,1.0938 1.3523-.6063 1.0234-1.1801.9375-1.0938zm-5.0938,6.8125c-1.0646,1.5184-1.8344,2.5178-3.0938,4.4063-5.35,8.0226-12.1614,18.9401-18.9688,29.9688s-13.6156,22.1994-19,30.875c-2.6922,4.3378-5.008,8.0282-6.875,10.875-.9335,1.4234-1.7505,2.6464-2.5,3.6875s-.68,1.4927-3.0625,3.5c-2.5218,2.1247-2.9109,1.8853-4.0313,2.4063s-2.3897,1.048-3.875,1.6563c-2.9706,1.2166-6.8047,2.7109-11.2813,4.4063-8.9532,3.3906-20.4325,7.6114-31.7813,11.875s-22.5871,8.57-30.8438,12.0313c-1.6008.6711-2.3703,1.0903-3.7188,1.6875 1.1161,1.484 1.8411,2.5277 3.25,4.3125 5.9747,7.5688 14.2425,17.4595 22.625,27.3438s16.8838,19.7905 23.4688,27.5938c3.2925,3.9016 6.1202,7.2506 8.25,9.9063 1.0649,1.3278 1.9293,2.4655 2.6875,3.5s1.2342,1.1158 2.4063,4c1.2407,3.0531.8819,3.3675 1.0313,4.5938s.2865,2.5872.4063,4.1875c.2396,3.2006.4577,7.3133.6875,12.0938 .4597,9.561.9186,21.7665 1.4688,33.875s1.1955,24.1421 1.9375,33.0625c.1428,1.7172.287,2.5729.4375,4.0313 1.7598-.6043 2.9865-.9591 5.125-1.75 9.0458-3.3453 21.0077-8.1732 33-13.0938s24.0427-9.9279 33.5-13.7813c4.7287-1.9267 8.7845-3.5757 11.9688-4.7813 1.5921-.6028 2.9379-1.0984 4.1563-1.5s1.4556-.8077 4.5625-1.0313c3.2869-.2365 3.4751.2007 4.6875.4375s2.5347.5257 4.0938.9063c3.1181.7611 7.101,1.8352 11.7188,3.0938 9.2355,2.5172 21.001,5.8129 32.6875,9.0313s23.3177,6.3555 32.0313,8.4063c1.6763.3945 2.5359.5051 3.9688.8125-.0309-1.8554-.003-3.1359-.0937-5.4063-.386-9.6323-1.2766-22.4549-2.25-35.375s-2.0081-25.9441-2.75-36.125c-.371-5.0904-.6813-9.4753-.8438-12.875-.0813-1.6999-.1195-3.1237-.125-4.4063s-.341-1.6023.4063-4.625c.7908-3.1992 1.2438-3.2639 1.8438-4.3438s1.3125-2.2599 2.1563-3.625c1.6874-2.7302 3.9073-6.1848 6.5313-10.1875 5.2479-8.0054 12.0466-18.1617 18.7188-28.2813s13.232-20.2219 17.875-27.875c.8939-1.4735 1.2644-2.2627 2-3.5313-1.7719-.5431-2.9732-.9799-5.1563-1.5938-9.2844-2.6107-21.781-5.7441-34.375-8.8125s-25.3028-6.0583-35.2188-8.5c-4.958-1.2208-9.1841-2.2911-12.4688-3.1875-1.6423-.4482-3.0596-.8588-4.2813-1.25s-1.6053-.1985-4.25-1.8438c-2.8-1.7418-2.7209-2.1892-3.5625-3.0938s-1.7439-1.9317-2.7813-3.1563c-2.0746-2.4491-4.6612-5.6418-7.6563-9.375-5.9901-7.4665-13.5649-17.0565-21.125-26.5313s-15.1268-18.8429-20.9688-25.625c-1.129-1.3107-1.7682-1.905-2.75-3zm161.2813,98.125c1.0108,1.134 1.4847.618 1.375.5625-.1019-.0515-.8278-.3422-1.375-.5625zm-305.0313,12.2188c-.1328-.008-.2089.0833-.1875.125 .0519.1011.4703.7533.7813,1.25-.09-.958-.3759-1.3625-.5938-1.375zm254.9063,169.3125c-.7534,1.2997-.1438,1.5895-.125,1.4688 .0173-.1113.0849-.8909.125-1.4688zm-189.1563,8.2188c-.6266.0788-.5612.5462-.4688.5313 .1116-.018.874-.2029 1.4375-.3438-.361-.0799-.7702-.2125-.9688-.1875z" fill="#fff" transform="matrix(.39122,-.10876,.10876,.39122,29.24648,304.93511)"/>
<path d="m129.6563,160.5625c.6946-.6988.311-.3466-.25.375-.4403.5663-1.5824,2.2591-2.3125,3.2813 2.6415-1.6373 2.1593-3.2506 2.5625-3.6563zm-15.125,22.9375c-3.2861,5.1944-6.1765,9.593-9.6875,15.2813-6.7714,10.9704-13.5508,22.1263-19,30.9063-2.7246,4.39-5.1081,8.1746-7.125,11.25-1.0084,1.5377-1.9147,2.8727-2.9063,4.25s-.1204,1.673-5.8125,6.4688c-6.075,5.1184-6.1961,4.0733-7.7188,4.7813s-2.9733,1.3051-4.5938,1.9688c-3.2408,1.3273-7.1496,2.844-11.6875,4.5625-9.0758,3.4371-20.5321,7.6683-31.8125,11.9063-5.0046,1.8802-8.7627,3.4119-13.4375,5.2188 3.9248,4.7331 7.2372,8.8373 11.5625,13.9375 8.3382,9.832 16.8359,19.728 23.5,27.625 3.332,3.9485 6.168,7.3812 8.4688,10.25 1.1504,1.4344 2.1533,2.6941 3.1563,4.0625s1.5751.6723 4.375,7.5625c2.9886,7.3546 1.9533,7.1461 2.1563,8.8125s.3381,3.2229.4688,4.9688c.2614,3.4917.4858,7.654.7188,12.5 .466,9.6919.9219,21.9019 1.4688,33.9375 .2429,5.3455.5687,9.398.8438,14.4063 5.7161-2.2718 10.6543-4.1479 16.8438-6.6875 11.929-4.8945 23.9602-9.9128 33.5313-13.8125 4.7855-1.9498 8.9352-3.6352 12.375-4.9375 1.7199-.6512 3.2321-1.1874 4.8438-1.7188s1.1087-1.3097 8.5313-1.8438c7.918-.5697 7.3837.3656 9.0313.6875s3.1742.6786 4.875,1.0938c3.4016.8304 7.444,1.9117 12.125,3.1875 9.362,2.5517 21.1026,5.8635 32.7188,9.0625 5.1498,1.4182 9.0969,2.3723 13.9375,3.6563-.3938-6.1307-.6231-11.4006-1.125-18.0625-.9683-12.8517-2.0304-25.8216-2.7813-36.125-.3754-5.1517-.6682-9.6085-.8438-13.2813-.0878-1.8364-.149-3.4595-.1563-5.1563s-.8788-1.4349.9063-8.6563c1.905-7.7065 2.6223-6.9388 3.4375-8.4063s1.6108-2.792 2.5313-4.2813c1.8409-2.9785 4.1214-6.505 6.7813-10.5625 5.3198-8.115 12.118-18.2538 18.75-28.3125 2.9416-4.4615 5.0632-7.9164 7.7813-12.125-5.9652-1.5236-11.0553-2.9146-17.5625-4.5-12.5275-3.0522-25.2149-6.0602-35.25-8.5313-5.0176-1.2355-9.358-2.3442-12.9063-3.3125-1.7741-.4842-3.3214-.92-4.9375-1.4375s-1.6503.3993-7.9688-3.5313c-6.7453-4.1961-5.7624-4.6456-6.9063-5.875s-2.1808-2.414-3.3125-3.75c-2.2635-2.672-4.9014-5.9343-7.9375-9.7188-6.0722-7.5688-13.6104-17.1448-21.125-26.5625-3.3314-4.1751-5.9648-7.2715-9.125-11.1563zm-130.9063,75.125c-.4495-.8761-.2628-.4131.25.3438 .4111.6068 1.6997,2.2412 2.4688,3.2813-.7307-3.0863-2.4559-3.1126-2.7188-3.625zm280.0938,9.2188c2.3913,2.0402 3.8003,1.0535 4.3125,1.3125 .8786.4444.4537.1858-.4063-.125-.6844-.2474-2.685-.8019-3.9063-1.1875zm-228.9688,158.4375c-2.0869.1983-2.514,1.4528-3,1.5313-.9721.1569-.4722.0978.4063-.1563 .697-.2016 2.634-.9083 3.8438-1.3125-.4486-.0354-.9022-.0955-1.25-.0625zm172.7188,3.5313c-1.1849,2.8871.1505,3.9026.0625,4.4688-.1513.9738-.0299.4756 0-.4375 .0236-.7204-.0522-2.7665-.0625-4.0313z" fill="#803300" transform="matrix(.39122,-.10876,.10876,.39122,29.24648,304.93511)"/>
<path d="m97.5282,353.4817-.0971.1719c-.0169.0302-.0208.0646-.0215.1114 .0538-.1254.1017-.2474.1188-.2833zm-.1188.2833c-.0123.0292-.0223.0301-.0354.0625-.1106.2694-.3734,1.0559-.5479,1.5352 .7279-.7895.5756-1.3304.5832-1.5977zm-3.4009,10.5071c-.7206,2.3895-1.373,4.4247-2.128,7.0319-1.456,5.0282-2.8949,10.13-4.0719,14.1575-.5885,2.0138-1.1093,3.7536-1.5639,5.1761-.2273.7113-.4367,1.3321-.6748,1.9788s.1348.6676-1.5704,3.1629c-1.82,2.6631-1.9811,2.2674-2.4997,2.71s-1.0213.834-1.583,1.2698c-1.1235.8717-2.4878,1.8902-4.0762,3.056-3.1768,2.3317-7.1985,5.233-11.1508,8.1178-1.7534,1.2798-3.0571,2.2878-4.6894,3.5031 2.0502,1.4248 3.7924,2.6702 6.0393,4.1951 4.3313,2.9396 8.7321,5.8869 12.1981,8.2516 1.733,1.1823 3.2158,2.2169 4.4279,3.089 .606.436 1.1354.8198 1.6766,1.2461s.6893.0917 2.5341,2.4828c1.9691,2.5522 1.5413,2.5833 1.802,3.2131s.4828,1.2241.7238,1.8929c.482,1.3376 1.0225,2.9416 1.6406,4.8121 1.2364,3.741 2.7427,8.4682 4.2656,13.1173 .6764,2.0649 1.2446,3.6149 1.8969,5.5442 1.9892-1.5104 3.717-2.7815 5.8623-4.4482l7.8263-6.1005c-4.1323-4.9855-7.291-10.8772-9.127-17.4817-5.5766-20.0599 2.7038-40.7797 19.1704-52.4661-.4248-.0836-.9832-.2168-1.7851-.452-3.0953-.908-2.7597-1.1907-3.3408-1.5473s-1.1157-.7072-1.7038-1.1068c-1.1761-.7992-2.5629-1.7886-4.1623-2.9389-3.1987-2.3007-7.1893-5.2271-11.1534-8.0943-1.7574-1.2711-3.1244-2.196-4.7832-3.3721zm-42.9645,43.6714c.0278.0249.0246.0356.057.0632 .2268.1927.9087.6919 1.3227,1.0152-.5438-.9869-1.1353-.9817-1.3797-1.0783zm38.1568,59.9859c-.6955.2665-.8056.7053-.944.8682l.0788-.0482c.2508-.1547.9317-.6418 1.361-.9315-.1793.0349-.3633.0607-.4958.1115zm-.944.8682c-.2423.1427-.3806.2031-.0632.0571 .0227-.0102.0434-.0338.0632-.0571z" fill="url(#linearGradient4103)"/>
<g transform="translate(7.826,9.1304)">
<path d="m233.7679,440.2276c-3.7499,3.3923-93.2077-24.333-98.2513-23.9702-5.401.3886-96.5914,41.0301-101.2872,38.3336-4.3851-2.5181-5.6607-96.1651-7.5643-100.8497-2.0385-5.0165-68.8704-79.1849-67.7569-84.4841 1.0398-4.9486 89.7092-35.1003 93.5763-38.3584 4.1411-3.489 54.0272-89.9691 59.4111-90.5477 5.0277-.5403 61.104,74.4719 65.3976,77.1429 4.5979,2.8602 102.261,23.581 104.475,28.5226 2.0675,4.6147-51.9448,81.1264-53.1583,86.0353-1.2994,5.2567 9.1736,104.5429 5.1579,108.1756z" fill="#008000" transform="matrix(.85818,0,0,.85818,260.91373,103.34414)"/>
<path d="m117.9375,148.9063c-.0772.0776-.5823.6712-.9375,1.0938 1.3523-.6063 1.0234-1.1801.9375-1.0938zm-5.0938,6.8125c-1.0646,1.5184-1.8344,2.5178-3.0938,4.4063-5.35,8.0226-12.1614,18.9401-18.9688,29.9688s-13.6156,22.1994-19,30.875c-2.6922,4.3378-5.008,8.0282-6.875,10.875-.9335,1.4234-1.7505,2.6464-2.5,3.6875s-.68,1.4927-3.0625,3.5c-2.5218,2.1247-2.9109,1.8853-4.0313,2.4063s-2.3897,1.048-3.875,1.6563c-2.9706,1.2166-6.8047,2.7109-11.2813,4.4063-8.9532,3.3906-20.4325,7.6114-31.7813,11.875s-22.5871,8.57-30.8438,12.0313c-1.6008.6711-2.3703,1.0903-3.7188,1.6875 1.1161,1.484 1.8411,2.5277 3.25,4.3125 5.9747,7.5688 14.2425,17.4595 22.625,27.3438s16.8838,19.7905 23.4688,27.5938c3.2925,3.9016 6.1202,7.2506 8.25,9.9063 1.0649,1.3278 1.9293,2.4655 2.6875,3.5s1.2342,1.1158 2.4063,4c1.2407,3.0531.8819,3.3675 1.0313,4.5938s.2865,2.5872.4063,4.1875c.2396,3.2006.4577,7.3133.6875,12.0938 .4597,9.561.9186,21.7665 1.4688,33.875s1.1955,24.1421 1.9375,33.0625c.1428,1.7172.287,2.5729.4375,4.0313 1.7598-.6043 2.9865-.9591 5.125-1.75 9.0458-3.3453 21.0077-8.1732 33-13.0938s24.0427-9.9279 33.5-13.7813c4.7287-1.9267 8.7845-3.5757 11.9688-4.7813 1.5921-.6028 2.9379-1.0984 4.1563-1.5s1.4556-.8077 4.5625-1.0313c3.2869-.2365 3.4751.2007 4.6875.4375s2.5347.5257 4.0938.9063c3.1181.7611 7.101,1.8352 11.7188,3.0938 9.2355,2.5172 21.001,5.8129 32.6875,9.0313s23.3177,6.3555 32.0313,8.4063c1.6763.3945 2.5359.5051 3.9688.8125-.0309-1.8554-.003-3.1359-.0937-5.4063-.386-9.6323-1.2766-22.4549-2.25-35.375s-2.0081-25.9441-2.75-36.125c-.371-5.0904-.6813-9.4753-.8438-12.875-.0813-1.6999-.1195-3.1237-.125-4.4063s-.341-1.6023.4063-4.625c.7908-3.1992 1.2438-3.2639 1.8438-4.3438s1.3125-2.2599 2.1563-3.625c1.6874-2.7302 3.9073-6.1848 6.5313-10.1875 5.2479-8.0054 12.0466-18.1617 18.7188-28.2813s13.232-20.2219 17.875-27.875c.8939-1.4735 1.2644-2.2627 2-3.5313-1.7719-.5431-2.9732-.9799-5.1563-1.5938-9.2844-2.6107-21.781-5.7441-34.375-8.8125s-25.3028-6.0583-35.2188-8.5c-4.958-1.2208-9.1841-2.2911-12.4688-3.1875-1.6423-.4482-3.0596-.8588-4.2813-1.25s-1.6053-.1985-4.25-1.8438c-2.8-1.7418-2.7209-2.1892-3.5625-3.0938s-1.7439-1.9317-2.7813-3.1563c-2.0746-2.4491-4.6612-5.6418-7.6563-9.375-5.9901-7.4665-13.5649-17.0565-21.125-26.5313s-15.1268-18.8429-20.9688-25.625c-1.129-1.3107-1.7682-1.905-2.75-3zm161.2813,98.125c1.0108,1.134 1.4847.618 1.375.5625-.1019-.0515-.8278-.3422-1.375-.5625zm-305.0313,12.2188c-.1328-.008-.2089.0833-.1875.125 .0519.1011.4703.7533.7813,1.25-.09-.958-.3759-1.3625-.5938-1.375zm254.9063,169.3125c-.7534,1.2997-.1438,1.5895-.125,1.4688 .0173-.1113.0849-.8909.125-1.4688zm-189.1563,8.2188c-.6266.0788-.5612.5462-.4688.5313 .1116-.018.874-.2029 1.4375-.3438-.361-.0799-.7702-.2125-.9688-.1875z" fill="#fff" transform="matrix(.85818,0,0,.85818,260.91373,103.34414)"/>
<path d="m129.6563,160.5625c.6946-.6988.311-.3466-.25.375-.4403.5663-1.5824,2.2591-2.3125,3.2813 2.6415-1.6373 2.1593-3.2506 2.5625-3.6563zm-15.125,22.9375c-3.2861,5.1944-6.1765,9.593-9.6875,15.2813-6.7714,10.9704-13.5508,22.1263-19,30.9063-2.7246,4.39-5.1081,8.1746-7.125,11.25-1.0084,1.5377-1.9147,2.8727-2.9063,4.25s-.1204,1.673-5.8125,6.4688c-6.075,5.1184-6.1961,4.0733-7.7188,4.7813s-2.9733,1.3051-4.5938,1.9688c-3.2408,1.3273-7.1496,2.844-11.6875,4.5625-9.0758,3.4371-20.5321,7.6683-31.8125,11.9063-5.0046,1.8802-8.7627,3.4119-13.4375,5.2188 3.9248,4.7331 7.2372,8.8373 11.5625,13.9375 8.3382,9.832 16.8359,19.728 23.5,27.625 3.332,3.9485 6.168,7.3812 8.4688,10.25 1.1504,1.4344 2.1533,2.6941 3.1563,4.0625s1.5751.6723 4.375,7.5625c2.9886,7.3546 1.9533,7.1461 2.1563,8.8125s.3381,3.2229.4688,4.9688c.2614,3.4917.4858,7.654.7188,12.5 .466,9.6919.9219,21.9019 1.4688,33.9375 .2429,5.3455.5687,9.398.8438,14.4063 5.7161-2.2718 10.6543-4.1479 16.8438-6.6875 11.929-4.8945 23.9602-9.9128 33.5313-13.8125 4.7855-1.9498 8.9352-3.6352 12.375-4.9375 1.7199-.6512 3.2321-1.1874 4.8438-1.7188s1.1087-1.3097 8.5313-1.8438c7.918-.5697 7.3837.3656 9.0313.6875s3.1742.6786 4.875,1.0938c3.4016.8304 7.444,1.9117 12.125,3.1875 9.362,2.5517 21.1026,5.8635 32.7188,9.0625 5.1498,1.4182 9.0969,2.3723 13.9375,3.6563-.3938-6.1307-.6231-11.4006-1.125-18.0625-.9683-12.8517-2.0304-25.8216-2.7813-36.125-.3754-5.1517-.6682-9.6085-.8438-13.2813-.0878-1.8364-.149-3.4595-.1563-5.1563s-.8788-1.4349.9063-8.6563c1.905-7.7065 2.6223-6.9388 3.4375-8.4063s1.6108-2.792 2.5313-4.2813c1.8409-2.9785 4.1214-6.505 6.7813-10.5625 5.3198-8.115 12.118-18.2538 18.75-28.3125 2.9416-4.4615 5.0632-7.9164 7.7813-12.125-5.9652-1.5236-11.0553-2.9146-17.5625-4.5-12.5275-3.0522-25.2149-6.0602-35.25-8.5313-5.0176-1.2355-9.358-2.3442-12.9063-3.3125-1.7741-.4842-3.3214-.92-4.9375-1.4375s-1.6503.3993-7.9688-3.5313c-6.7453-4.1961-5.7624-4.6456-6.9063-5.875s-2.1808-2.414-3.3125-3.75c-2.2635-2.672-4.9014-5.9343-7.9375-9.7188-6.0722-7.5688-13.6104-17.1448-21.125-26.5625-3.3314-4.1751-5.9648-7.2715-9.125-11.1563zm-130.9063,75.125c-.4495-.8761-.2628-.4131.25.3438 .4111.6068 1.6997,2.2412 2.4688,3.2813-.7307-3.0863-2.4559-3.1126-2.7188-3.625zm280.0938,9.2188c2.3913,2.0402 3.8003,1.0535 4.3125,1.3125 .8786.4444.4537.1858-.4063-.125-.6844-.2474-2.685-.8019-3.9063-1.1875zm-228.9688,158.4375c-2.0869.1983-2.514,1.4528-3,1.5313-.9721.1569-.4722.0978.4063-.1563 .697-.2016 2.634-.9083 3.8438-1.3125-.4486-.0354-.9022-.0955-1.25-.0625zm172.7188,3.5313c-1.1849,2.8871.1505,3.9026.0625,4.4688-.1513.9738-.0299.4756 0-.4375 .0236-.7204-.0522-2.7665-.0625-4.0313z" fill="#008000" transform="matrix(.85818,0,0,.85818,260.91373,103.34414)"/>
<path d="m372.4711,240.8486c.068-.078.003-.005-.295.295-.0516.0519-.0781.12-.1073.2145 .1808-.2248.3471-.4463.4023-.5095zm-.4023.5095c-.0421.0523-.0618.0488-.1073.1073-.3779.486-1.358,1.9387-1.9845,2.8159 1.929-1.1957 1.9251-2.3832 2.0918-2.9232zm-12.8727,19.4699c-2.8201,4.4577-5.3005,8.2325-8.3136,13.114-5.811,9.4145-11.629,18.9883-16.3054,26.5231-2.3382,3.7674-4.3837,7.0152-6.1145,9.6545-.8654,1.3196-1.6432,2.4653-2.4941,3.6473s-.1034,1.4358-4.9882,5.5513c-5.2134,4.3925-5.3174,3.4956-6.6241,4.1032s-2.5517,1.12-3.9423,1.6895c-2.7812,1.139-6.1356,2.4406-10.03,3.9154-7.7887,2.9497-17.6202,6.5808-27.3008,10.2177-4.2948,1.6135-7.52,2.928-11.5318,4.4786 3.3682,4.0619 6.2108,7.584 9.9227,11.9609 7.1556,8.4376 14.4482,16.9301 20.1672,23.7072 2.8595,3.3885 5.2932,6.3344 7.2677,8.7963 .9872,1.231 1.8479,2.312 2.7086,3.4863s1.3517.5769 3.7545,6.49c2.5648,6.3115 1.6762,6.1326 1.8504,7.5627s.2901,2.7658.4023,4.2641c.2243,2.9965.4169,6.5685.6168,10.7272 .3999,8.3174.7912,18.7957 1.2605,29.1244 .2084,4.5874.488,8.0652.7241,12.3631 4.9055-1.9496 9.1433-3.5597 14.455-5.7391 6.7106-2.7534 13.2229-5.4474 19.3895-7.9918-5.5923-12.4909-8.6891-26.2758-8.6891-40.7635 0-44.0035 28.5896-81.5067 68.7347-95.9819-.8175-.4106-1.8794-.998-3.3791-1.9309-5.7887-3.601-4.9452-3.9867-5.9268-5.0418s-1.8715-2.0716-2.8427-3.2182c-1.9424-2.2931-4.2063-5.0927-6.8118-8.3404-5.211-6.4954-11.6802-14.7133-18.129-22.7954-2.8589-3.583-5.1189-6.2403-7.8309-9.5741zm-112.2068,64.6047c.0427.0665.03.0864.0804.1609 .3528.5207 1.4586,1.9234 2.1186,2.8159-.5487-2.3175-1.756-2.6417-2.1991-2.9768zm43.7403,143.7449c-1.5671.1489-2.0396.9801-2.4136,1.2336l.1877-.054c.5981-.1729 2.2605-.7794 3.2986-1.1263-.385-.03-.7742-.082-1.0727-.054zm-2.4136,1.2336c-.5742.1535-.89.1982-.1609.08 .0521-.01.1075-.044.1609-.08z" fill="url(#linearGradient3075)"/>
</g>
</g>
</svg>
